<svg width="80" height="50" viewBox="0 0 80 50" fill="none" xmlns="http://www.w3.org/2000/svg">
<path d="M54.3501 3.73768H45.4469L43.6491 0.717425C43.4732 0.42213 43.1551 0.241211 42.8114 0.241211H37.157C36.8133 0.241211 36.4951 0.42213 36.3193 0.717425L34.5215 3.73768H31.6V3.07201C31.6 2.53363 31.1635 2.09714 30.6251 2.09714H27.018C26.4795 2.09714 26.0431 2.53363 26.0431 3.07201V3.73768H25.6184C24.2644 3.73768 23.167 4.83524 23.167 6.18901V23.938C23.167 25.2919 24.2644 26.3894 25.6183 26.3894H54.3501C55.704 26.3894 56.8015 25.2919 56.8015 23.938V6.18901C56.8016 4.83524 55.704 3.73768 54.3501 3.73768ZM39.9842 22.0412C36.1305 22.0412 33.0065 18.9172 33.0065 15.0634C33.0065 11.2098 36.1305 8.08566 39.9842 8.08566C43.8379 8.08566 46.9619 11.2098 46.9619 15.0634C46.9619 18.9172 43.8379 22.0412 39.9842 22.0412ZM52.8206 8.79161H49.7659C49.2275 8.79161 48.791 8.35512 48.791 7.81663C48.791 7.27814 49.2275 6.84166 49.7659 6.84166H52.8206C53.3592 6.84166 53.7956 7.27814 53.7956 7.81663C53.7956 8.35512 53.3591 8.79161 52.8206 8.79161Z" fill="#FEB800"/>
<path d="M39.9841 19.9378C42.6763 19.9378 44.8588 17.7553 44.8588 15.0631C44.8588 12.3709 42.6763 10.1885 39.9841 10.1885C37.292 10.1885 35.1095 12.3709 35.1095 15.0631C35.1095 17.7553 37.292 19.9378 39.9841 19.9378Z" fill="#FEB800"/>
<path d="M21.7586 44.2195C21.7986 44.3155 21.8186 44.3955 21.8186 44.4595C21.8186 44.6115 21.7546 44.7395 21.6266 44.8435C21.5066 44.9475 21.3706 44.9995 21.2186 44.9995C21.1146 44.9995 21.0146 44.9715 20.9186 44.9155C20.8306 44.8515 20.7626 44.7635 20.7146 44.6515L19.9226 42.8515H15.5306L14.7386 44.6515C14.6906 44.7635 14.6186 44.8515 14.5226 44.9155C14.4266 44.9715 14.3266 44.9995 14.2226 44.9995C14.0626 44.9995 13.9186 44.9475 13.7906 44.8435C13.6706 44.7395 13.6106 44.6115 13.6106 44.4595C13.6106 44.3955 13.6306 44.3155 13.6706 44.2195L17.0546 36.8155C17.1106 36.6875 17.1986 36.5875 17.3186 36.5155C17.4466 36.4435 17.5786 36.4075 17.7146 36.4075C17.8506 36.4075 17.9786 36.4435 18.0986 36.5155C18.2266 36.5875 18.3186 36.6875 18.3746 36.8155L21.7586 44.2195ZM19.4906 41.8675L17.7266 37.8955L15.9746 41.8675H19.4906ZM27.7511 36.4195C27.9351 36.4195 28.0831 36.4715 28.1951 36.5755C28.3071 36.6795 28.3631 36.8195 28.3631 36.9955V44.4115C28.3631 44.5955 28.3071 44.7395 28.1951 44.8435C28.0911 44.9475 27.9471 44.9995 27.7631 44.9995C27.5791 44.9995 27.4311 44.9475 27.3191 44.8435C27.2151 44.7395 27.1631 44.5955 27.1631 44.4115V43.9315C26.9871 44.2835 26.7311 44.5555 26.3951 44.7475C26.0591 44.9315 25.6711 45.0235 25.2311 45.0235C24.7271 45.0235 24.2751 44.8955 23.8751 44.6395C23.4831 44.3835 23.1751 44.0235 22.9511 43.5595C22.7351 43.0955 22.6271 42.5635 22.6271 41.9635C22.6271 41.3555 22.7351 40.8235 22.9511 40.3675C23.1751 39.9115 23.4831 39.5595 23.8751 39.3115C24.2671 39.0635 24.7191 38.9395 25.2311 38.9395C25.6711 38.9395 26.0551 39.0355 26.3831 39.2275C26.7191 39.4115 26.9751 39.6755 27.1511 40.0195V36.9715C27.1511 36.8035 27.2031 36.6715 27.3071 36.5755C27.4191 36.4715 27.5671 36.4195 27.7511 36.4195ZM25.5191 44.0635C26.0391 44.0635 26.4431 43.8835 26.7311 43.5235C27.0191 43.1635 27.1631 42.6515 27.1631 41.9875C27.1631 41.3235 27.0191 40.8115 26.7311 40.4515C26.4511 40.0915 26.0471 39.9115 25.5191 39.9115C24.9911 39.9115 24.5791 40.0915 24.2831 40.4515C23.9951 40.8035 23.8511 41.3075 23.8511 41.9635C23.8511 42.6195 23.9991 43.1355 24.2951 43.5115C24.5911 43.8795 24.9991 44.0635 25.5191 44.0635ZM34.8409 36.4195C35.0249 36.4195 35.1729 36.4715 35.2849 36.5755C35.3969 36.6795 35.4529 36.8195 35.4529 36.9955V44.4115C35.4529 44.5955 35.3969 44.7395 35.2849 44.8435C35.1809 44.9475 35.0369 44.9995 34.8529 44.9995C34.6689 44.9995 34.5209 44.9475 34.4089 44.8435C34.3049 44.7395 34.2529 44.5955 34.2529 44.4115V43.9315C34.0769 44.2835 33.8209 44.5555 33.4849 44.7475C33.1489 44.9315 32.7609 45.0235 32.3209 45.0235C31.8169 45.0235 31.3649 44.8955 30.9649 44.6395C30.5729 44.3835 30.2649 44.0235 30.0409 43.5595C29.8249 43.0955 29.7169 42.5635 29.7169 41.9635C29.7169 41.3555 29.8249 40.8235 30.0409 40.3675C30.2649 39.9115 30.5729 39.5595 30.9649 39.3115C31.3569 39.0635 31.8089 38.9395 32.3209 38.9395C32.7609 38.9395 33.1449 39.0355 33.4729 39.2275C33.8089 39.4115 34.0649 39.6755 34.2409 40.0195V36.9715C34.2409 36.8035 34.2929 36.6715 34.3969 36.5755C34.5089 36.4715 34.6569 36.4195 34.8409 36.4195ZM32.6089 44.0635C33.1289 44.0635 33.5329 43.8835 33.8209 43.5235C34.1089 43.1635 34.2529 42.6515 34.2529 41.9875C34.2529 41.3235 34.1089 40.8115 33.8209 40.4515C33.5409 40.0915 33.1369 39.9115 32.6089 39.9115C32.0809 39.9115 31.6689 40.0915 31.3729 40.4515C31.0849 40.8035 30.9409 41.3075 30.9409 41.9635C30.9409 42.6195 31.0889 43.1355 31.3849 43.5115C31.6809 43.8795 32.0889 44.0635 32.6089 44.0635ZM41.0508 44.9395C40.8668 44.9395 40.7188 44.8875 40.6068 44.7835C40.5028 44.6795 40.4508 44.5395 40.4508 44.3635V37.0435C40.4508 36.8595 40.5068 36.7115 40.6188 36.5995C40.7308 36.4795 40.8788 36.4195 41.0628 36.4195C41.2548 36.4195 41.4068 36.4755 41.5188 36.5875C41.6308 36.6995 41.6868 36.8515 41.6868 37.0435V43.9075H45.3348C45.5188 43.9075 45.6588 43.9515 45.7548 44.0395C45.8588 44.1275 45.9108 44.2555 45.9108 44.4235C45.9108 44.5915 45.8588 44.7195 45.7548 44.8075C45.6588 44.8955 45.5188 44.9395 45.3348 44.9395H41.0508ZM49.3899 45.0235C48.8139 45.0235 48.3059 44.8995 47.8659 44.6515C47.4339 44.4035 47.0979 44.0515 46.8579 43.5955C46.6259 43.1315 46.5099 42.5955 46.5099 41.9875C46.5099 41.3715 46.6259 40.8355 46.8579 40.3795C47.0979 39.9155 47.4339 39.5595 47.8659 39.3115C48.3059 39.0635 48.8139 38.9395 49.3899 38.9395C49.9659 38.9395 50.4699 39.0635 50.9019 39.3115C51.3419 39.5595 51.6779 39.9155 51.9099 40.3795C52.1499 40.8355 52.2699 41.3715 52.2699 41.9875C52.2699 42.5955 52.1499 43.1315 51.9099 43.5955C51.6779 44.0515 51.3419 44.4035 50.9019 44.6515C50.4699 44.8995 49.9659 45.0235 49.3899 45.0235ZM49.3899 44.0635C49.9259 44.0635 50.3339 43.8875 50.6139 43.5355C50.9019 43.1835 51.0459 42.6675 51.0459 41.9875C51.0459 41.3155 50.9019 40.8035 50.6139 40.4515C50.3259 40.0915 49.9179 39.9115 49.3899 39.9115C48.8619 39.9115 48.4539 40.0915 48.1659 40.4515C47.8779 40.8035 47.7339 41.3155 47.7339 41.9875C47.7339 42.6675 47.8739 43.1835 48.1539 43.5355C48.4419 43.8875 48.8539 44.0635 49.3899 44.0635ZM58.4673 38.9635C58.6513 38.9635 58.7953 39.0195 58.8993 39.1315C59.0113 39.2355 59.0673 39.3755 59.0673 39.5515V44.4715C59.0673 45.3675 58.8273 46.0435 58.3473 46.4995C57.8753 46.9555 57.1753 47.1835 56.2473 47.1835C55.3833 47.1835 54.6633 47.0195 54.0873 46.6915C53.7913 46.5235 53.6433 46.3235 53.6433 46.0915C53.6433 45.9555 53.6793 45.8435 53.7513 45.7555C53.8313 45.6675 53.9273 45.6235 54.0393 45.6235C54.1433 45.6235 54.3073 45.6835 54.5313 45.8035C54.8193 45.9395 55.0873 46.0435 55.3353 46.1155C55.5833 46.1955 55.8793 46.2355 56.2233 46.2355C57.3273 46.2355 57.8793 45.6795 57.8793 44.5675V43.6435C57.7113 43.9955 57.4553 44.2715 57.1113 44.4715C56.7673 44.6635 56.3673 44.7595 55.9113 44.7595C55.3993 44.7595 54.9433 44.6395 54.5433 44.3995C54.1433 44.1595 53.8313 43.8195 53.6073 43.3795C53.3913 42.9395 53.2833 42.4315 53.2833 41.8555C53.2833 41.2795 53.3953 40.7715 53.6193 40.3315C53.8433 39.8915 54.1513 39.5515 54.5433 39.3115C54.9433 39.0635 55.3993 38.9395 55.9113 38.9395C56.3593 38.9395 56.7513 39.0355 57.0873 39.2275C57.4313 39.4195 57.6913 39.6915 57.8673 40.0435V39.5395C57.8673 39.3635 57.9193 39.2235 58.0233 39.1195C58.1353 39.0155 58.2833 38.9635 58.4673 38.9635ZM56.1993 43.7995C56.7193 43.7995 57.1273 43.6275 57.4233 43.2835C57.7193 42.9395 57.8673 42.4635 57.8673 41.8555C57.8673 41.2555 57.7193 40.7835 57.4233 40.4395C57.1353 40.0875 56.7273 39.9115 56.1993 39.9115C55.6713 39.9115 55.2553 40.0835 54.9513 40.4275C54.6553 40.7715 54.5073 41.2475 54.5073 41.8555C54.5073 42.4635 54.6593 42.9395 54.9633 43.2835C55.2673 43.6275 55.6793 43.7995 56.1993 43.7995ZM63.3 45.0235C62.724 45.0235 62.216 44.8995 61.776 44.6515C61.344 44.4035 61.008 44.0515 60.768 43.5955C60.536 43.1315 60.42 42.5955 60.42 41.9875C60.42 41.3715 60.536 40.8355 60.768 40.3795C61.008 39.9155 61.344 39.5595 61.776 39.3115C62.216 39.0635 62.724 38.9395 63.3 38.9395C63.876 38.9395 64.38 39.0635 64.812 39.3115C65.252 39.5595 65.588 39.9155 65.82 40.3795C66.06 40.8355 66.18 41.3715 66.18 41.9875C66.18 42.5955 66.06 43.1315 65.82 43.5955C65.588 44.0515 65.252 44.4035 64.812 44.6515C64.38 44.8995 63.876 45.0235 63.3 45.0235ZM63.3 44.0635C63.836 44.0635 64.244 43.8875 64.524 43.5355C64.812 43.1835 64.956 42.6675 64.956 41.9875C64.956 41.3155 64.812 40.8035 64.524 40.4515C64.236 40.0915 63.828 39.9115 63.3 39.9115C62.772 39.9115 62.364 40.0915 62.076 40.4515C61.788 40.8035 61.644 41.3155 61.644 41.9875C61.644 42.6675 61.784 43.1835 62.064 43.5355C62.352 43.8875 62.764 44.0635 63.3 44.0635Z" fill="#FEB800"/>
</svg>
