<svg width="21" height="25" viewBox="0 0 21 25" fill="none" xmlns="http://www.w3.org/2000/svg">
<path d="M6.90527 22.7441C7.49213 24.0709 8.82025 24.9994 10.3618 24.9994C11.9035 24.9994 13.2315 24.0709 13.8184 22.7441H6.90527Z" fill="white"/>
<path d="M10.3615 2.38851C11.3788 2.38851 12.3556 2.568 13.2621 2.89662V2.78496C13.2621 1.24933 12.0128 0 10.4772 0H10.2464C8.71075 0 7.46143 1.24933 7.46143 2.78496V2.8952C8.36741 2.56756 9.34392 2.38851 10.3615 2.38851Z" fill="white"/>
<path d="M19.516 21.2772H1.20756C0.861193 21.2772 0.543922 21.0436 0.47188 20.7047C0.400571 20.3693 0.553459 20.0381 0.863639 19.8948C0.937246 19.8471 1.49128 19.4597 2.04596 18.2876C3.06468 16.1351 3.27851 13.103 3.27851 10.9384C3.27851 7.03283 6.45596 3.85547 10.3615 3.85547C14.2578 3.85547 17.4294 7.01752 17.4445 10.9103C17.4448 10.9197 17.445 10.929 17.445 10.9384C17.445 13.103 17.6589 16.1351 18.6776 18.2876C19.2322 19.4597 19.7862 19.8472 19.8599 19.8948C20.1701 20.0381 20.323 20.3692 20.2517 20.7047C20.1796 21.0435 19.8624 21.2772 19.516 21.2772ZM19.8681 19.9H19.8686H19.8681Z" fill="white"/>
<path d="M9.06403 8.61523C8.64067 8.61523 8.20801 8.71371 8.20801 9.44261V12.0956C8.20801 12.8245 8.64067 12.9227 9.06403 12.9227C9.66373 12.9227 9.931 12.6677 9.931 12.0956V9.44238C9.93127 8.87045 9.66373 8.61523 9.06403 8.61523Z" fill="white"/>
</svg>
