<svg width="29" height="29" viewBox="0 0 29 29" fill="none" xmlns="http://www.w3.org/2000/svg">
<g filter="url(#filter0_dii)">
<path fill-rule="evenodd" clip-rule="evenodd" d="M17.4618 3.67708C17.3593 3.87773 17.2238 4.05951 17.061 4.21476C16.9031 4.37362 16.6359 4.63024 16.2351 4.98462C16.14 5.06798 16.0508 5.1578 15.9679 5.25346C15.9141 5.31886 15.8654 5.3883 15.8222 5.46119C15.7854 5.52095 15.7606 5.58738 15.7493 5.65672C15.7146 5.76493 15.6862 5.8751 15.6643 5.98665C15.6596 6.05892 15.6409 6.12956 15.609 6.19451C15.5772 6.25946 15.5329 6.31744 15.4788 6.36513C15.4246 6.41282 15.3616 6.44928 15.2934 6.4724C15.2252 6.49553 15.1531 6.50487 15.0813 6.49989C14.9233 6.49836 14.7716 6.43732 14.6562 6.32881C14.538 6.19458 14.477 6.01906 14.4861 5.84001C14.4823 5.59311 14.5277 5.34795 14.6197 5.11904C14.7028 4.92861 14.8133 4.75155 14.9477 4.59358C15.0934 4.44694 15.2756 4.26364 15.5185 4.0559L15.9679 3.64042C16.0552 3.54699 16.1326 3.4446 16.1987 3.33492C16.2606 3.21823 16.2939 3.08836 16.2958 2.95611C16.2972 2.83151 16.2719 2.70807 16.2216 2.5942C16.1713 2.48034 16.0972 2.37871 16.0043 2.29623C15.7987 2.10975 15.5278 2.01305 15.2513 2.02739C15.1086 2.01741 14.9653 2.03602 14.8298 2.08217C14.6943 2.12832 14.5692 2.20108 14.4618 2.29623C14.271 2.53582 14.1268 2.80943 14.0367 3.10274C13.9315 3.46934 13.725 3.65265 13.4173 3.65265C13.2523 3.65031 13.0939 3.58659 12.9728 3.47377C12.8517 3.36095 12.7764 3.20702 12.7614 3.04165C12.7744 2.70582 12.8795 2.38015 13.0651 2.10071C13.2787 1.76476 13.576 1.49092 13.9274 1.30641C14.3361 1.0941 14.7915 0.989022 15.2513 1.00091C15.6698 0.997738 16.084 1.08526 16.4659 1.25753C16.8029 1.41462 17.0922 1.65928 17.3039 1.96628C17.493 2.25694 17.5943 2.59652 17.5954 2.94389C17.5994 3.19862 17.541 3.45043 17.4254 3.67708H17.4618ZM25.5509 21.6038C24.291 20.4682 22.9102 19.4765 21.4335 18.6465C21.4112 18.6351 21.3925 18.6176 21.3796 18.5959C21.3668 18.5743 21.3602 18.5495 21.3606 18.5243V15.4449C21.5461 15.3014 21.6955 15.116 21.7968 14.9038C21.8981 14.6915 21.9484 14.4583 21.9436 14.2229V11.0091C21.9766 10.2817 21.7215 9.57084 21.2342 9.03248C20.7469 8.49412 20.0673 8.17221 19.3444 8.13737H18.725C18.0074 8.1784 17.3352 8.50344 16.855 9.04148C16.3748 9.57953 16.1258 10.2869 16.1622 11.0091V14.1985C16.1531 14.4333 16.2002 14.6668 16.2996 14.8795C16.3989 15.0922 16.5476 15.2777 16.7331 15.4205V18.4999C17.2797 18.9154 17.8505 19.3797 18.4092 19.8807C18.7416 20.1922 19.0045 20.5711 19.1804 20.9924C19.3562 21.4138 19.4411 21.8679 19.4295 22.3247V24.8787H26.0732V22.7036C26.0798 22.475 26.0377 22.2477 25.9497 22.0369C25.8617 21.8262 25.7299 21.6368 25.5631 21.4816L25.5509 21.6038ZM2.07318 25.0009H18.5185V22.2514C18.5217 21.9884 18.4705 21.7277 18.368 21.4857C18.2655 21.2438 18.1141 21.026 17.9234 20.8461C16.4337 19.5296 14.8045 18.3821 13.0651 17.4245C13.0363 17.4125 13.0117 17.3921 12.9944 17.366C12.9771 17.3399 12.9679 17.3093 12.9679 17.2779V13.6119C13.1927 13.4586 13.3774 13.2531 13.5064 13.0127C13.6353 12.7723 13.7048 12.5042 13.7088 12.2311V8.4673C13.7484 7.61349 13.4496 6.77876 12.878 6.1464C12.3064 5.51405 11.5088 5.13576 10.6602 5.0946H9.93148C9.50921 5.11186 9.0945 5.21293 8.71119 5.39201C8.32789 5.57109 7.98355 5.82463 7.69798 6.13807C7.41241 6.45151 7.19123 6.81865 7.04718 7.21838C6.90313 7.61812 6.83904 8.04256 6.8586 8.4673V12.2311C6.85316 12.5023 6.91333 12.7708 7.03393 13.0135C7.15453 13.2562 7.33195 13.4657 7.55091 13.6241V17.2901C7.55173 17.3232 7.54298 17.3558 7.52574 17.384C7.50849 17.4122 7.48348 17.4348 7.45375 17.449C5.71037 18.4001 4.08042 19.548 2.59545 20.8706C2.40351 21.0495 2.25128 21.2671 2.14872 21.5093C2.04616 21.7514 1.99559 22.0127 2.0003 22.2759V25.0254L2.07318 25.0009ZM15.64 8.1618C15.5033 8.28605 15.3262 8.35562 15.142 8.35733C14.9501 8.35819 14.7644 8.28868 14.6197 8.1618C14.5463 8.0938 14.4887 8.01039 14.4509 7.91746C14.4131 7.82454 14.3961 7.7244 14.4011 7.62413C14.3994 7.5261 14.418 7.42878 14.4556 7.33833C14.4933 7.24789 14.5492 7.16628 14.6197 7.09867C14.6888 7.03101 14.7705 6.97781 14.8602 6.94215C14.9498 6.90649 15.0456 6.88908 15.142 6.89093C15.2366 6.88863 15.3307 6.90588 15.4185 6.94161C15.5062 6.97734 15.5857 7.0308 15.6521 7.09867C15.7238 7.16717 15.7809 7.24962 15.8198 7.341C15.8588 7.43238 15.8789 7.53079 15.8789 7.63024C15.8789 7.72969 15.8588 7.82809 15.8198 7.91948C15.7809 8.01086 15.7238 8.09331 15.6521 8.1618H15.64Z" fill="#4F4F4F"/>
</g>
<defs>
<filter id="filter0_dii" x="0" y="-1" width="28.0739" height="29.0254" filterUnits="userSpaceOnUse" color-interpolation-filters="sRGB">
<feFlood flood-opacity="0" result="BackgroundImageFix"/>
<feColorMatrix in="SourceAlpha" type="matrix" values="0 0 0 0 0 0 0 0 0 0 0 0 0 0 0 0 0 0 127 0"/>
<feOffset dy="1"/>
<feGaussianBlur stdDeviation="1"/>
<feColorMatrix type="matrix" values="0 0 0 0 0 0 0 0 0 0 0 0 0 0 0 0 0 0 0.45 0"/>
<feBlend mode="normal" in2="BackgroundImageFix" result="effect1_dropShadow"/>
<feBlend mode="normal" in="SourceGraphic" in2="effect1_dropShadow" result="shape"/>
<feColorMatrix in="SourceAlpha" type="matrix" values="0 0 0 0 0 0 0 0 0 0 0 0 0 0 0 0 0 0 127 0" result="hardAlpha"/>
<feOffset dx="-1" dy="-2"/>
<feGaussianBlur stdDeviation="1"/>
<feComposite in2="hardAlpha" operator="arithmetic" k2="-1" k3="1"/>
<feColorMatrix type="matrix" values="0 0 0 0 0 0 0 0 0 0 0 0 0 0 0 0 0 0 0.3 0"/>
<feBlend mode="normal" in2="shape" result="effect2_innerShadow"/>
<feColorMatrix in="SourceAlpha" type="matrix" values="0 0 0 0 0 0 0 0 0 0 0 0 0 0 0 0 0 0 127 0" result="hardAlpha"/>
<feOffset dy="1"/>
<feGaussianBlur stdDeviation="1"/>
<feComposite in2="hardAlpha" operator="arithmetic" k2="-1" k3="1"/>
<feColorMatrix type="matrix" values="0 0 0 0 1 0 0 0 0 1 0 0 0 0 1 0 0 0 0.5 0"/>
<feBlend mode="normal" in2="effect2_innerShadow" result="effect3_innerShadow"/>
</filter>
</defs>
</svg>
