<svg width="60" height="59" viewBox="0 0 60 59" fill="none" xmlns="http://www.w3.org/2000/svg">
<g clip-path="url(#clip0)">
<g opacity="0.5">
<path opacity="0.5" d="M29.9546 59C46.247 59 59.4546 45.7924 59.4546 29.5C59.4546 13.2076 46.247 0 29.9546 0C13.6622 0 0.45459 13.2076 0.45459 29.5C0.45459 45.7924 13.6622 59 29.9546 59Z" fill="url(#paint0_linear)"/>
</g>
<path d="M30.0122 58.1894C45.961 58.1894 58.89 45.2603 58.89 29.3115C58.89 13.3627 45.961 0.433594 30.0122 0.433594C14.0633 0.433594 1.13428 13.3627 1.13428 29.3115C1.13428 45.2603 14.0633 58.1894 30.0122 58.1894Z" fill="#F5F5F5"/>
<path d="M30.039 58.3035C35.6818 58.3127 41.2024 56.6605 45.9124 53.5531C44.8482 47.7376 40.7985 47.4062 40.7985 47.4062H18.4664C18.4664 47.4062 14.6449 47.7198 13.4514 53.0696C18.3074 56.4854 24.102 58.3137 30.039 58.3035Z" fill="#6C63FF"/>
<path d="M29.7322 42.6417C37.4303 42.6417 43.6708 36.4012 43.6708 28.7032C43.6708 21.0051 37.4303 14.7646 29.7322 14.7646C22.0342 14.7646 15.7937 21.0051 15.7937 28.7032C15.7937 36.4012 22.0342 42.6417 29.7322 42.6417Z" fill="#333333"/>
<path opacity="0.1" d="M25.2336 40.3125H34.1648V47.4576C34.1648 48.6416 33.6945 49.7772 32.8575 50.6146C32.0204 51.452 30.885 51.9227 29.7009 51.9231C28.5166 51.9231 27.3807 51.4527 26.5433 50.6152C25.7058 49.7777 25.2353 48.6419 25.2353 47.4576V40.3125H25.2336Z" fill="black"/>
<path d="M25.5168 39.9814H33.885C33.9601 39.9814 34.0322 40.0113 34.0853 40.0644C34.1384 40.1175 34.1682 40.1895 34.1682 40.2646V47.1265C34.1683 47.7132 34.0528 48.2941 33.8284 48.8361C33.6039 49.3781 33.2748 49.8705 32.86 50.2853C32.4451 50.7001 31.9526 51.0291 31.4105 51.2534C30.8685 51.4778 30.2876 51.5932 29.7009 51.593C28.5166 51.593 27.3807 51.1225 26.5433 50.285C25.7058 49.4476 25.2354 48.3117 25.2354 47.1274V40.2646C25.2354 40.1898 25.2649 40.118 25.3177 40.065C25.3704 40.0119 25.442 39.9819 25.5168 39.9814Z" fill="#FDB797"/>
<path opacity="0.1" d="M25.2498 43.6857C28.1282 44.7611 31.2966 44.7698 34.1809 43.7102V42.6113H25.2498V43.6857Z" fill="black"/>
<path d="M29.7323 44.283C36.8025 44.283 42.534 38.5515 42.534 31.4813C42.534 24.4112 36.8025 18.6797 29.7323 18.6797C22.6622 18.6797 16.9307 24.4112 16.9307 31.4813C16.9307 38.5515 22.6622 44.283 29.7323 44.283Z" fill="#FDB797"/>
<path opacity="0.1" d="M20.6135 19.837C20.6135 19.837 26.0089 30.7883 41.228 24.4285L37.6846 18.8725L31.4034 16.6182L20.6135 19.837Z" fill="black"/>
<path d="M20.6135 19.6765C20.6135 19.6765 26.0089 30.6279 41.228 24.2664L37.6846 18.7104L31.4034 16.4561L20.6135 19.6765Z" fill="#333333"/>
<path d="M20.5661 18.9345C20.9299 17.8084 21.5586 16.786 22.3995 15.9533C24.9175 13.4639 29.0458 12.939 31.1633 10.1006C31.6704 10.8884 31.2782 12.0997 30.4025 12.4378C32.4312 12.4242 34.7819 12.2467 35.9289 10.5782C36.2124 11.2381 36.3027 11.9649 36.1895 12.6742C36.0762 13.3834 35.7639 14.0459 35.289 14.5848C37.0869 14.6693 39.0082 15.8865 39.1215 17.6827C39.1993 18.8796 38.4453 20.0122 37.4656 20.6986C36.4859 21.385 35.2924 21.7003 34.1217 21.9581C30.7034 22.7129 18.3354 25.8717 20.5661 18.9345Z" fill="#333333"/>
<path d="M16.9256 33.7028C17.5834 33.7028 18.1166 32.7029 18.1166 31.4695C18.1166 30.2362 17.5834 29.2363 16.9256 29.2363C16.2678 29.2363 15.7346 30.2362 15.7346 31.4695C15.7346 32.7029 16.2678 33.7028 16.9256 33.7028Z" fill="#FDB797"/>
<path d="M42.5323 33.7028C43.1901 33.7028 43.7233 32.7029 43.7233 31.4695C43.7233 30.2362 43.1901 29.2363 42.5323 29.2363C41.8745 29.2363 41.3413 30.2362 41.3413 31.4695C41.3413 32.7029 41.8745 33.7028 42.5323 33.7028Z" fill="#FDB797"/>
</g>
<defs>
<linearGradient id="paint0_linear" x1="29.9546" y1="59" x2="29.9546" y2="0" gradientUnits="userSpaceOnUse">
<stop stop-color="#808080" stop-opacity="0.25"/>
<stop offset="0.54" stop-color="#808080" stop-opacity="0.12"/>
<stop offset="1" stop-color="#808080" stop-opacity="0.1"/>
</linearGradient>
<clipPath id="clip0">
<rect x="0.45459" width="59" height="59" fill="white"/>
</clipPath>
</defs>
</svg>
