<svg width="28" height="25" viewBox="0 0 28 25" fill="none" xmlns="http://www.w3.org/2000/svg">
<path d="M18.6442 4.99316L3.14662 5.02494C1.66214 5.02494 0.45459 6.2325 0.45459 7.71697V17.3143C0.45459 18.7988 1.66214 20.0059 3.14662 20.0059H5.9022V24.5455C5.9022 24.733 6.01751 24.9015 6.19274 24.9691C6.24585 24.9895 6.30124 24.9995 6.35617 24.9995C6.48146 24.9995 6.60449 24.9473 6.6921 24.8511L11.0974 20.005L18.6451 19.9741C20.1295 19.9741 21.3371 18.7665 21.3371 17.2825V7.68519C21.3371 6.20072 20.1295 4.99316 18.6442 4.99316ZM4.99427 9.53284H10.8958C11.1469 9.53284 11.3498 9.73622 11.3498 9.98681C11.3498 10.2374 11.1469 10.4408 10.8958 10.4408H4.99427C4.74322 10.4408 4.5403 10.2374 4.5403 9.98681C4.5403 9.73622 4.74322 9.53284 4.99427 9.53284ZM16.7974 15.8884H4.99427C4.74322 15.8884 4.5403 15.685 4.5403 15.4344C4.5403 15.1838 4.74322 14.9805 4.99427 14.9805H16.7974C17.0485 14.9805 17.2514 15.1838 17.2514 15.4344C17.2514 15.685 17.0485 15.8884 16.7974 15.8884ZM16.7974 13.1646H4.99427C4.74322 13.1646 4.5403 12.9612 4.5403 12.7106C4.5403 12.46 4.74322 12.2566 4.99427 12.2566H16.7974C17.0485 12.2566 17.2514 12.46 17.2514 12.7106C17.2514 12.9612 17.0485 13.1646 16.7974 13.1646Z" fill="white"/>
<path d="M25.0014 0.0317778L9.50209 0C8.01761 0 6.81006 1.20755 6.81006 2.69203V4.11022L18.6423 4.08571C20.6293 4.08571 22.245 5.70047 22.245 7.68567V17.2508V17.283V18.2304L23.7249 19.8584C23.8125 19.9546 23.9355 20.0068 24.0608 20.0068C24.1158 20.0068 24.1711 19.9968 24.2243 19.9764C24.3995 19.9087 24.5148 19.7403 24.5148 19.5528V15.0132H25.0005C26.485 15.0132 27.6926 13.8056 27.6926 12.3216V2.72381C27.6926 1.23933 26.485 0.0317778 25.0014 0.0317778Z" fill="white"/>
</svg>
