<svg width="29" height="29" viewBox="0 0 29 29" fill="none" xmlns="http://www.w3.org/2000/svg">
<g filter="url(#filter0_dii)">
<path fill-rule="evenodd" clip-rule="evenodd" d="M15.3846 9.19219H25.1667C25.2755 9.19049 25.3836 9.21046 25.4846 9.25093C25.5856 9.2914 25.6776 9.35157 25.7552 9.42793C25.8327 9.50429 25.8943 9.59533 25.9363 9.69572C25.9784 9.79612 26 9.90387 26 10.0127V25.1794C26 25.2882 25.9784 25.396 25.9363 25.4964C25.8943 25.5968 25.8327 25.6878 25.7552 25.7641C25.6776 25.8405 25.5856 25.9007 25.4846 25.9412C25.3836 25.9816 25.2755 26.0016 25.1667 25.9999H15.3846C15.2758 26.0016 15.1677 25.9816 15.0667 25.9412C14.9656 25.9007 14.8737 25.8405 14.7961 25.7641C14.7186 25.6878 14.657 25.5968 14.6149 25.4964C14.5729 25.396 14.5513 25.2882 14.5513 25.1794V10.0127C14.5513 9.90387 14.5729 9.79612 14.6149 9.69572C14.657 9.59533 14.7186 9.50429 14.7961 9.42793C14.8737 9.35157 14.9656 9.2914 15.0667 9.25093C15.1677 9.21046 15.2758 9.19049 15.3846 9.19219V9.19219ZM2.83334 19.9101H12.6026C12.8248 19.9101 13.0381 19.9975 13.1964 20.1534C13.3547 20.3093 13.4454 20.5213 13.4487 20.7435V24.9101C13.4454 25.1323 13.3547 25.3443 13.1964 25.5002C13.0381 25.6561 12.8248 25.7435 12.6026 25.7435H2.83334C2.61335 25.7402 2.40331 25.6513 2.24774 25.4957C2.09217 25.3402 2.00331 25.1301 2 24.9101V20.7435C2 20.634 2.02156 20.5257 2.06344 20.4246C2.10532 20.3235 2.16669 20.2316 2.24408 20.1542C2.32146 20.0768 2.41333 20.0155 2.51443 19.9736C2.61554 19.9317 2.7239 19.9101 2.83334 19.9101ZM2.83334 2.05117H12.6282C12.847 2.05114 13.0571 2.13717 13.213 2.29069C13.3689 2.44421 13.4582 2.6529 13.4615 2.87168V18.0512C13.4582 18.27 13.3689 18.4786 13.213 18.6322C13.0571 18.7857 12.847 18.8717 12.6282 18.8717H2.82051C2.6029 18.8717 2.3942 18.7852 2.24033 18.6314C2.08645 18.4775 2 18.2688 2 18.0512V2.8204C2 2.60278 2.08645 2.39409 2.24033 2.24021C2.3942 2.08634 2.6029 1.99989 2.82051 1.99989L2.83334 2.05117ZM15.4103 2.05117H25.1667C25.3889 2.05114 25.6022 2.13853 25.7605 2.29445C25.9188 2.45037 26.0095 2.66232 26.0128 2.8845V7.05117C26.0095 7.27336 25.9188 7.48529 25.7605 7.64122C25.6022 7.79714 25.3889 7.88453 25.1667 7.88451H15.3974C15.1752 7.88453 14.9619 7.79714 14.8036 7.64122C14.6453 7.48529 14.5547 7.27336 14.5513 7.05117V2.83322C14.5479 2.71996 14.5672 2.60717 14.6082 2.50153C14.6492 2.39589 14.7109 2.29956 14.7899 2.21825C14.8688 2.13694 14.9632 2.07232 15.0676 2.0282C15.172 1.98409 15.2841 1.96137 15.3974 1.96143L15.4103 2.05117Z" fill="#4F4F4F"/>
</g>
<defs>
<filter id="filter0_dii" x="0" y="-0.0385742" width="28.0128" height="29.0386" filterUnits="userSpaceOnUse" color-interpolation-filters="sRGB">
<feFlood flood-opacity="0" result="BackgroundImageFix"/>
<feColorMatrix in="SourceAlpha" type="matrix" values="0 0 0 0 0 0 0 0 0 0 0 0 0 0 0 0 0 0 127 0"/>
<feOffset dy="1"/>
<feGaussianBlur stdDeviation="1"/>
<feColorMatrix type="matrix" values="0 0 0 0 0 0 0 0 0 0 0 0 0 0 0 0 0 0 0.45 0"/>
<feBlend mode="normal" in2="BackgroundImageFix" result="effect1_dropShadow"/>
<feBlend mode="normal" in="SourceGraphic" in2="effect1_dropShadow" result="shape"/>
<feColorMatrix in="SourceAlpha" type="matrix" values="0 0 0 0 0 0 0 0 0 0 0 0 0 0 0 0 0 0 127 0" result="hardAlpha"/>
<feOffset dx="-1" dy="-2"/>
<feGaussianBlur stdDeviation="1"/>
<feComposite in2="hardAlpha" operator="arithmetic" k2="-1" k3="1"/>
<feColorMatrix type="matrix" values="0 0 0 0 0 0 0 0 0 0 0 0 0 0 0 0 0 0 0.3 0"/>
<feBlend mode="normal" in2="shape" result="effect2_innerShadow"/>
<feColorMatrix in="SourceAlpha" type="matrix" values="0 0 0 0 0 0 0 0 0 0 0 0 0 0 0 0 0 0 127 0" result="hardAlpha"/>
<feOffset dy="1"/>
<feGaussianBlur stdDeviation="1"/>
<feComposite in2="hardAlpha" operator="arithmetic" k2="-1" k3="1"/>
<feColorMatrix type="matrix" values="0 0 0 0 1 0 0 0 0 1 0 0 0 0 1 0 0 0 0.5 0"/>
<feBlend mode="normal" in2="effect2_innerShadow" result="effect3_innerShadow"/>
</filter>
</defs>
</svg>
