<svg width="16" height="20" viewBox="0 0 16 20" fill="none" xmlns="http://www.w3.org/2000/svg">
<path d="M14.1845 2.97314H13.6411V16.3213C13.6411 17.2081 12.9193 17.9299 12.0326 17.9299H6.52756H2.14996V18.4247C2.14996 18.9913 2.60984 19.4512 3.17645 19.4512H8.67949H14.1825C14.7491 19.4512 15.209 18.9913 15.209 18.4247V3.99963C15.209 3.43302 14.7511 2.97314 14.1845 2.97314Z" fill="#E0E0E0"/>
<path d="M6.52758 17.3477H12.0306C12.5972 17.3477 13.0571 16.8878 13.0571 16.3212V2.97305V1.89611C13.0571 1.32951 12.5972 0.869629 12.0306 0.869629H6.52758H4.69776V1.2092C4.70162 1.24413 4.70358 1.281 4.70358 1.31787V3.55517V4.12954C4.70358 4.92705 4.05548 5.57515 3.25797 5.57515H2.6836H0.446297C0.417191 5.57515 0.386144 5.57321 0.357038 5.57127H0V16.3212C0 16.8878 0.45988 17.3477 1.02648 17.3477H2.15193H6.52758ZM6.73521 13.8588H3.14737C2.87959 13.8588 2.66226 13.6415 2.66226 13.3737C2.66226 13.1059 2.87959 12.8886 3.14737 12.8886H6.73715C7.00493 12.8886 7.22225 13.1059 7.22225 13.3737C7.22225 13.6415 7.00299 13.8588 6.73521 13.8588ZM10.325 11.3829H3.14737C2.87959 11.3829 2.66226 11.1655 2.66226 10.8977C2.66226 10.6299 2.87959 10.4126 3.14737 10.4126H10.325C10.5928 10.4126 10.8101 10.6299 10.8101 10.8977C10.8101 11.1655 10.5928 11.3829 10.325 11.3829ZM3.14737 7.78335H10.325C10.5928 7.78335 10.8101 8.00068 10.8101 8.26845C10.8101 8.53623 10.5928 8.75356 10.325 8.75356H6.73618H3.14737C2.87959 8.75356 2.66226 8.53623 2.66226 8.26845C2.66226 8.00068 2.87959 7.78335 3.14737 7.78335Z" fill="#E0E0E0"/>
<rect x="2.1712" y="7.08105" width="9.29074" height="2.01973" fill="#E0E0E0"/>
<path d="M2.43355 0.467906C2.56555 0.467906 2.67555 0.503906 2.76355 0.575906C2.84755 0.647906 2.88955 0.753906 2.88955 0.893906L2.88955 3.08391C2.88955 3.22391 2.84555 3.32991 2.75755 3.40191C2.66955 3.47391 2.56155 3.50991 2.43355 3.50991C2.30555 3.50991 2.19955 3.47391 2.11555 3.40191C2.02755 3.32991 1.98355 3.22391 1.98355 3.08391L1.98355 0.893906C1.98355 0.753906 2.02755 0.647906 2.11555 0.575906C2.19955 0.503906 2.30555 0.467906 2.43355 0.467906ZM2.43355 3.98991C2.59355 3.98991 2.71955 4.02991 2.81155 4.10991C2.90355 4.19391 2.94955 4.30591 2.94955 4.44591C2.94955 4.58591 2.90355 4.69591 2.81155 4.77591C2.71955 4.85591 2.59355 4.89591 2.43355 4.89591C2.27755 4.89591 2.15355 4.85391 2.06155 4.76991C1.96555 4.68991 1.91755 4.58191 1.91755 4.44591C1.91755 4.30591 1.96355 4.19391 2.05555 4.10991C2.14755 4.02991 2.27355 3.98991 2.43355 3.98991Z" fill="#E0E0E0"/>
</svg>
