<svg width="29" height="28" viewBox="0 0 21 28" fill="none" xmlns="http://www.w3.org/2000/svg">
<g filter="url(#filter0_dii)">
<path fill-rule="evenodd" clip-rule="evenodd" d="M12.0581 24.3701C11.5566 24.7772 10.9258 25 10.2744 25C9.62306 25 8.99217 24.7772 8.49074 24.3701C8.2324 24.1563 8.02818 23.8867 7.89411 23.5826C7.76004 23.2784 7.69978 22.948 7.71803 22.6173C7.71195 22.3015 7.77554 21.9882 7.90445 21.6988C8.03336 21.4093 8.22456 21.1505 8.46498 20.94C8.95937 20.4864 9.6164 20.2417 10.2937 20.2591C10.9622 20.2483 11.6088 20.4925 12.0967 20.94C12.3328 21.1532 12.5203 21.4128 12.6468 21.7018C12.7733 21.9909 12.836 22.3028 12.8308 22.6173C12.8471 22.9478 12.7859 23.2776 12.652 23.5814C12.518 23.8852 12.3149 24.155 12.0581 24.3701V24.3701ZM18.42 9.66611C18.0456 10.3167 17.5723 10.9078 17.0163 11.419C16.4754 11.9108 15.5095 12.7431 14.1186 13.9411C13.792 14.2127 13.4823 14.5032 13.1914 14.8113C12.9948 15.0192 12.8221 15.2475 12.6762 15.4922C12.5628 15.6861 12.4762 15.8939 12.4187 16.1102C12.4187 16.3119 12.2513 16.6776 12.1353 17.1947C12.1143 17.4335 12.0452 17.6659 11.932 17.8785C11.8188 18.091 11.6638 18.2795 11.4758 18.4331C11.2878 18.5867 11.0707 18.7023 10.8368 18.7733C10.603 18.8442 10.3572 18.8692 10.1134 18.8467C9.82569 18.8626 9.53783 18.8173 9.26965 18.714C9.00147 18.6106 8.75933 18.4516 8.55987 18.2479C8.3604 18.0442 8.20835 17.8007 8.11416 17.5339C8.01998 17.2672 7.98589 16.9837 8.01424 16.7029C7.99805 15.9112 8.1516 15.125 8.46498 14.3951C8.74241 13.7566 9.13996 13.1748 9.63692 12.6801C10.1263 12.1882 10.7831 11.6082 11.6073 10.9272C12.4316 10.2462 12.8952 9.89311 13.1785 9.59045C13.4951 9.29239 13.7682 8.95289 13.9898 8.58159C14.2249 8.20231 14.3413 7.76389 14.3247 7.32053C14.3305 6.9113 14.242 6.50606 14.0659 6.13491C13.8897 5.76377 13.6304 5.43626 13.3073 5.17672C12.5894 4.58268 11.6709 4.27238 10.7316 4.30658C10.2352 4.26421 9.73512 4.32056 9.26151 4.47226C8.78789 4.62396 8.35049 4.86787 7.9756 5.18933C7.30142 5.94479 6.80466 6.83587 6.52034 7.79974C6.44844 8.20333 6.26386 8.57956 5.98705 8.88676C5.71024 9.19396 5.352 9.42015 4.95199 9.54027C4.55199 9.66038 4.12584 9.66973 3.72074 9.5673C3.31564 9.46487 2.9474 9.25466 2.6568 8.95992C2.45731 8.78954 2.29597 8.58059 2.18294 8.3462C2.06991 8.11182 2.00762 7.85706 2 7.59796C2.03295 6.50423 2.391 5.44365 3.03028 4.54619C3.80295 3.46653 4.84477 2.59831 6.05671 2.02406C7.49791 1.31671 9.09417 0.965996 10.7058 1.0026C12.2032 0.975245 13.6887 1.26787 15.0588 1.86011C16.2245 2.35704 17.2305 3.15468 17.9693 4.16787C18.6403 5.09721 19.0003 6.20757 18.9996 7.34576C19.0106 8.15484 18.8112 8.95336 18.42 9.66611V9.66611Z" fill="#4F4F4F"/>
</g>
<defs>
<filter id="filter0_dii" x="0" y="-1" width="29" height="29" filterUnits="userSpaceOnUse" color-interpolation-filters="sRGB">
<feFlood flood-opacity="0" result="BackgroundImageFix"/>
<feColorMatrix in="SourceAlpha" type="matrix" values="0 0 0 0 0 0 0 0 0 0 0 0 0 0 0 0 0 0 127 0"/>
<feOffset dy="1"/>
<feGaussianBlur stdDeviation="1"/>
<feColorMatrix type="matrix" values="0 0 0 0 0 0 0 0 0 0 0 0 0 0 0 0 0 0 0.45 0"/>
<feBlend mode="normal" in2="BackgroundImageFix" result="effect1_dropShadow"/>
<feBlend mode="normal" in="SourceGraphic" in2="effect1_dropShadow" result="shape"/>
<feColorMatrix in="SourceAlpha" type="matrix" values="0 0 0 0 0 0 0 0 0 0 0 0 0 0 0 0 0 0 127 0" result="hardAlpha"/>
<feOffset dx="-1" dy="-2"/>
<feGaussianBlur stdDeviation="1"/>
<feComposite in2="hardAlpha" operator="arithmetic" k2="-1" k3="1"/>
<feColorMatrix type="matrix" values="0 0 0 0 0 0 0 0 0 0 0 0 0 0 0 0 0 0 0.3 0"/>
<feBlend mode="normal" in2="shape" result="effect2_innerShadow"/>
<feColorMatrix in="SourceAlpha" type="matrix" values="0 0 0 0 0 0 0 0 0 0 0 0 0 0 0 0 0 0 127 0" result="hardAlpha"/>
<feOffset dy="1"/>
<feGaussianBlur stdDeviation="1"/>
<feComposite in2="hardAlpha" operator="arithmetic" k2="-1" k3="1"/>
<feColorMatrix type="matrix" values="0 0 0 0 1 0 0 0 0 1 0 0 0 0 1 0 0 0 0.5 0"/>
<feBlend mode="normal" in2="effect2_innerShadow" result="effect3_innerShadow"/>
</filter>
</defs>
</svg>
