<svg width="192" height="75" viewBox="0 0 192 75" fill="none" xmlns="http://www.w3.org/2000/svg">
<path d="M94.758 44.6313C95.0645 44.9444 95.3711 45.2575 95.6777 45.2575H95.9842C96.2908 45.2575 96.5974 44.9444 96.5974 44.6313L102.422 33.3604L108.247 44.6313C108.247 44.9444 108.553 45.2575 108.86 45.2575H109.167C109.473 45.2575 109.78 44.9444 109.78 44.6313L115.605 27.0988C115.605 26.4727 115.298 26.1596 114.685 26.1596H111.926C111.313 26.1596 111.006 26.1596 110.699 26.4727L108.247 35.552H107.94L103.342 26.1596C103.342 25.8465 103.035 25.5334 102.729 25.5334H102.116C101.809 25.5334 101.502 25.8465 101.502 26.1596L96.9039 35.552H96.5974L93.8383 26.4727C93.8383 26.1596 93.5317 26.1596 93.2251 26.1596H90.1594C89.5463 26.1596 88.9332 26.4727 89.2397 27.0988L94.758 44.6313ZM118.977 43.6921C118.977 44.3182 119.283 44.6313 119.896 44.6313H122.962C123.575 44.6313 123.882 44.3182 123.882 43.6921V33.3604C124.495 31.4819 125.415 30.2296 127.561 30.2296C129.707 30.2296 130.933 31.795 130.933 34.2997V43.6921C130.933 44.3182 131.239 44.6313 131.853 44.6313H134.918C135.531 44.6313 135.838 44.3182 135.838 43.6921V34.2997C135.838 29.9165 134.305 25.5334 128.48 25.5334C126.334 25.5334 124.802 26.4727 123.882 27.0988V17.3933C123.882 16.7672 123.575 16.4541 122.962 16.4541H119.896C119.283 16.4541 118.977 16.7672 118.977 17.3933V43.6921ZM140.743 43.6921C140.743 44.3182 141.05 44.6313 141.663 44.6313H144.728C145.342 44.6313 145.648 44.3182 145.648 43.6921V27.0988C145.648 26.4727 145.342 26.1596 144.728 26.1596H141.663C141.05 26.1596 140.743 26.4727 140.743 27.0988V43.6921ZM143.196 23.0288C145.035 23.0288 146.261 21.4634 146.261 19.5849C146.261 18.0195 145.035 16.4541 143.196 16.4541C141.356 16.4541 140.13 18.0195 140.13 19.5849C140.13 21.4634 141.356 23.0288 143.196 23.0288ZM168.947 35.552C168.947 29.9165 165.268 25.5334 160.363 25.5334C156.378 25.5334 154.232 28.3511 154.232 28.3511L153.925 27.0988C153.619 26.4727 153.619 26.1596 153.006 26.1596H151.473C151.166 26.1596 150.86 26.4727 150.86 27.0988V53.3975C150.86 53.7106 151.166 54.3368 151.473 54.3368H154.845C155.152 54.3368 155.765 53.7106 155.765 53.3975V44.3182C156.378 44.6313 158.217 45.2575 160.057 45.2575C165.575 45.2575 168.947 40.8743 168.947 35.552ZM155.765 32.7343C156.071 31.795 157.298 30.2296 159.75 30.2296C162.509 30.2296 164.042 32.7343 164.042 35.552C164.042 38.0566 162.509 40.5613 159.444 40.5613C156.991 40.5613 155.765 39.622 155.765 39.622V32.7343ZM191.327 35.552C191.327 29.9165 187.648 25.5334 182.743 25.5334C178.757 25.5334 176.611 28.3511 176.611 28.3511L176.305 27.0988C175.998 26.4727 175.692 26.1596 175.385 26.1596H173.852C173.546 26.1596 172.933 26.4727 172.933 27.0988V53.3975C172.933 53.7106 173.546 54.3368 173.852 54.3368H177.225C177.531 54.3368 177.838 53.7106 177.838 53.3975V44.3182C178.757 44.6313 180.597 45.2575 182.436 45.2575C187.648 45.2575 191.327 40.8743 191.327 35.552ZM177.838 32.7343C178.451 31.795 179.677 30.2296 182.13 30.2296C184.889 30.2296 186.422 32.7343 186.422 35.552C186.422 38.0566 184.889 40.5613 181.823 40.5613C179.37 40.5613 177.838 39.622 177.838 39.622V32.7343Z" fill="#9C9C9C"/>
<path fill-rule="evenodd" clip-rule="evenodd" d="M66.1376 17.3779C66.1376 17.3779 63.9843 24.5257 61.831 26.3904C59.9853 28.5658 57.2167 30.1196 53.5253 26.7011C53.2177 26.3904 52.9101 26.0796 52.6025 25.7688C52.2949 25.7688 51.9872 25.1473 51.6796 25.1473C48.6034 22.3503 44.912 20.4857 39.6826 22.0395C33.2226 23.9042 23.6865 24.8365 23.6865 24.8365C23.6865 24.8365 18.7646 25.7688 11.6894 14.8918C4.30663 4.01468 3.07617 1.21772 3.07617 1.21772C3.07617 1.21772 0 -2.51156 0 3.08236C0 8.67629 0.307617 16.7564 2.76855 23.9042C5.22949 31.052 10.1514 38.5105 10.1514 38.5105L33.8378 41.929C33.8378 41.929 36.2988 37.5782 40.2978 37.5782C44.6044 37.5782 47.9882 40.3752 50.7568 43.4829C53.2177 46.5906 59.6777 55.6031 59.6777 55.6031C59.6777 55.6031 63.3691 59.3323 66.7528 54.6707C70.1366 50.3199 66.1376 17.3779 66.1376 17.3779Z" fill="#9C9C9C"/>
<path fill-rule="evenodd" clip-rule="evenodd" d="M64.8189 11.1844C65.7483 -0.909328 81.8575 -2.76991 86.5044 7.15318C86.8142 7.46328 86.5044 7.77338 86.1946 8.08347C69.4658 18.6268 82.7869 48.396 87.4338 59.8696C95.1786 80.0259 67.2973 82.5067 57.3839 52.1172C57.3839 52.1172 61.1014 54.598 62.9602 51.8071C65.1287 48.396 64.5091 16.7662 64.8189 11.1844ZM31.9809 15.2157C42.5138 9.94405 47.4705 18.6268 52.737 25.759C52.737 25.759 45.6118 18.6268 40.0355 26.6893C34.4592 34.7518 36.318 45.9153 36.318 45.9153C36.318 45.9153 38.4865 57.6989 29.8123 58.009C21.1382 58.6292 6.8877 33.5114 6.8877 33.5114C23.3067 36.9225 20.8284 21.1075 31.9809 15.2157Z" fill="url(#paint0_linear)"/>
<defs>
<linearGradient id="paint0_linear" x1="9.15107" y1="37.0152" x2="86.9167" y2="7.53052" gradientUnits="userSpaceOnUse">
<stop stop-color="#693AE5"/>
<stop offset="0.258824" stop-color="#00EC7E"/>
<stop offset="0.6" stop-color="#FEB800"/>
<stop offset="1" stop-color="#FF0055"/>
</linearGradient>
</defs>
</svg>
