<svg width="28" height="28" viewBox="0 0 28 28" fill="none" xmlns="http://www.w3.org/2000/svg">
<g filter="url(#filter0_dii)">
<path fill-rule="evenodd" clip-rule="evenodd" d="M22.6646 4.44157H24.59C25.3632 4.44157 26 4.91156 26 5.48768V23.9539C26 24.53 25.3632 25 24.59 25H7.59444C6.82122 25 6.18446 24.53 6.18446 23.9539V22.3468H21.2394C22.0126 22.3468 22.6646 21.8768 22.6646 21.3007V4.44157V4.44157ZM15.084 10.6728C15.065 10.6684 15.0452 10.6681 15.026 10.672C15.0069 10.6759 14.9888 10.6838 14.9729 10.6953C14.9571 10.7068 14.944 10.7216 14.9344 10.7386C14.9248 10.7557 14.9189 10.7746 14.9172 10.7941V10.976C14.9093 10.9898 14.9051 11.0055 14.9051 11.0215C14.9051 11.0374 14.9093 11.0531 14.9172 11.067L17.813 11.6279C17.8285 11.639 17.847 11.645 17.8661 11.645C17.8851 11.645 17.9037 11.639 17.9191 11.6279V11.3853V11.2944L15.0689 10.7334L15.084 10.6728ZM11.8244 13.326H12.2641C12.3237 13.1924 12.3547 13.0478 12.355 12.9015C12.355 12.7044 12.355 12.6589 12.355 12.4769L12.5218 12.2495L12.825 11.9463L13.7498 11.0973C13.9333 10.9211 14.0869 10.7163 14.2047 10.4908C14.3304 10.242 14.3929 9.96602 14.3866 9.6873C14.3903 9.2978 14.2738 8.91664 14.0531 8.5957C13.8235 8.24881 13.5038 7.97102 13.1282 7.79217C12.7054 7.61354 12.2529 7.51583 11.7941 7.50411C11.3399 7.51405 10.892 7.61187 10.475 7.79217C10.0952 7.97066 9.77047 8.24824 9.53506 8.5957C9.32107 8.91985 9.20524 9.29891 9.20152 9.6873C9.19145 9.96824 9.25969 10.2464 9.39861 10.4908C9.51135 10.7155 9.65984 10.9203 9.83829 11.0973C10.0202 11.2641 10.3234 11.5521 10.7783 11.9463L11.0663 12.2495C11.1295 12.3195 11.1853 12.3957 11.2331 12.4769C11.3241 12.6589 11.2331 12.7044 11.2331 12.9015C11.2372 13.049 11.2734 13.1939 11.3392 13.326H11.8244ZM11.6879 6.15477C11.6907 6.19157 11.7056 6.22643 11.7303 6.25387C11.755 6.2813 11.7881 6.29977 11.8244 6.30638V6.30638C11.8607 6.29977 11.8938 6.2813 11.9185 6.25387C11.9432 6.22643 11.9581 6.19157 11.9608 6.15477V4.27479C11.9608 4.25067 11.9512 4.22753 11.9342 4.21047C11.9171 4.19341 11.894 4.18383 11.8699 4.18383H11.7183C11.7103 4.19765 11.7061 4.21335 11.7061 4.22931C11.7061 4.24528 11.7103 4.26097 11.7183 4.27479V6.15477H11.6879ZM10.4296 6.53379C10.4594 6.55844 10.497 6.57192 10.5357 6.57192C10.5744 6.57192 10.6119 6.55844 10.6418 6.53379L10.7934 6.45799C10.8028 6.45093 10.8105 6.44177 10.8157 6.43125C10.821 6.42072 10.8238 6.40911 10.8238 6.39734C10.8238 6.38557 10.821 6.37397 10.8157 6.36345C10.8105 6.35292 10.8028 6.34376 10.7934 6.3367L9.48958 3.72899C9.47411 3.71789 9.45555 3.71192 9.43651 3.71192C9.41747 3.71192 9.39891 3.71789 9.38345 3.72899L9.17119 3.85029C9.1573 3.86446 9.14952 3.88351 9.14952 3.90335C9.14952 3.92319 9.1573 3.94224 9.17119 3.95641L10.5509 6.51863L10.4296 6.53379ZM9.30764 7.23121C9.32038 7.24451 9.33568 7.25509 9.35262 7.26232C9.36955 7.26955 9.38778 7.27328 9.40619 7.27328C9.42461 7.27328 9.44283 7.26955 9.45977 7.26232C9.4767 7.25509 9.492 7.24451 9.50474 7.23121L9.61087 7.07959V6.97347L8.09476 5.82123C8.07808 5.80631 8.05649 5.79806 8.03411 5.79806C8.01174 5.79806 7.99014 5.80631 7.97347 5.82123L7.83702 6.01832C7.8221 6.03499 7.81385 6.05659 7.81385 6.07896C7.81385 6.10134 7.8221 6.12293 7.83702 6.13961L9.35313 7.24637L9.30764 7.23121ZM9.30764 11.7795L7.57928 12.5376C7.56539 12.5518 7.55761 12.5708 7.55761 12.5907C7.55761 12.6105 7.56539 12.6295 7.57928 12.6437L7.67025 12.8711C7.68693 12.886 7.70851 12.8943 7.73089 12.8943C7.75326 12.8943 7.77486 12.886 7.79153 12.8711L9.58054 12.0828V11.9766V11.8099C9.56399 11.7741 9.53416 11.7461 9.49737 11.732C9.46057 11.7178 9.41971 11.7186 9.38345 11.734L9.30764 11.7795ZM8.73152 8.27732C8.76969 8.28665 8.80999 8.2808 8.84393 8.26101C8.87787 8.24121 8.9028 8.20901 8.91346 8.17119V7.98926C8.92456 7.9738 8.93054 7.95524 8.93054 7.9362C8.93054 7.91716 8.92456 7.8986 8.91346 7.88313L6.04801 7.14024C6.03188 7.13092 6.01358 7.12602 5.99495 7.12602C5.97632 7.12602 5.95801 7.13092 5.94188 7.14024V7.38282C5.93257 7.39895 5.92766 7.41725 5.92766 7.43588C5.92766 7.45451 5.93257 7.47281 5.94188 7.48894L8.74669 8.21667L8.73152 8.27732ZM8.4283 9.21731H6.53317L6.45736 9.29311V9.53569C6.45705 9.55741 6.46453 9.57851 6.47843 9.59519C6.49234 9.61188 6.51175 9.62304 6.53317 9.62666H8.48894C8.49693 9.61283 8.50114 9.59714 8.50114 9.58117C8.50114 9.56521 8.49693 9.54952 8.48894 9.53569V9.35376C8.48894 9.31757 8.47457 9.28286 8.44898 9.25727C8.42339 9.23168 8.38868 9.21731 8.35249 9.21731H8.4283ZM8.71636 10.6273L5.86608 11.3095V11.4005V11.6431H5.95704L8.86797 11.0821V10.9912V10.8092C8.86059 10.7717 8.83931 10.7383 8.80838 10.7159C8.77746 10.6934 8.73917 10.6834 8.7012 10.6879L8.71636 10.6273ZM11.9002 17.2982H7.00316V18.223H16.8579V17.374H11.9002V17.2982ZM11.9002 13.4169H11.5363V13.4927H12.3399V13.4169H11.9002ZM11.9002 13.9627H11.7183V14.0537H12.0973V13.9627H11.8547H11.9002ZM11.9002 13.6898H11.6121V13.7656H12.2489V13.6898H11.9002V13.6898ZM13.4163 6.48831L14.796 3.92609C14.796 3.92609 14.796 3.83512 14.796 3.81996L14.4927 3.72899C14.4636 3.71719 14.4309 3.71719 14.4018 3.72899L12.9918 6.3367C12.9811 6.35514 12.9755 6.37605 12.9755 6.39734C12.9755 6.41863 12.9811 6.43955 12.9918 6.45799L13.1586 6.53379C13.186 6.55728 13.221 6.57019 13.2571 6.57019C13.2932 6.57019 13.3282 6.55728 13.3557 6.53379L13.4163 6.48831ZM14.5534 7.18572L16.0695 6.07896C16.0844 6.06228 16.0927 6.04069 16.0927 6.01832C16.0927 5.99594 16.0844 5.97435 16.0695 5.95768L15.9179 5.76058C15.9012 5.74566 15.8796 5.73742 15.8572 5.73742C15.8349 5.73742 15.8133 5.74566 15.7966 5.76058L14.2805 6.91282V7.01895L14.3866 7.17056C14.4165 7.19521 14.454 7.20869 14.4927 7.20869C14.5315 7.20869 14.569 7.19521 14.5989 7.17056L14.5534 7.18572ZM14.5534 11.734C14.5365 11.7267 14.5183 11.7228 14.4999 11.7226C14.4815 11.7225 14.4632 11.726 14.4462 11.7331C14.4292 11.7402 14.4138 11.7506 14.401 11.7638C14.3881 11.777 14.3781 11.7927 14.3714 11.8099V11.9766C14.3576 11.9908 14.3498 12.0098 14.3498 12.0297C14.3498 12.0495 14.3576 12.0686 14.3714 12.0828L16.1605 12.8711C16.1746 12.885 16.1937 12.8928 16.2135 12.8928C16.2334 12.8928 16.2524 12.885 16.2666 12.8711L16.3727 12.6437C16.3866 12.6295 16.3944 12.6105 16.3944 12.5907C16.3944 12.5708 16.3866 12.5518 16.3727 12.5376L14.6292 11.7795L14.5534 11.734ZM15.1295 8.27732L17.9343 7.54959C17.9454 7.53412 17.9514 7.51556 17.9514 7.49653C17.9514 7.47749 17.9454 7.45893 17.9343 7.44346V7.20088C17.9182 7.19157 17.8999 7.18666 17.8812 7.18666C17.8626 7.18666 17.8443 7.19157 17.8282 7.20088L14.9627 7.94377C14.9516 7.95924 14.9457 7.9778 14.9457 7.99684C14.9457 8.01588 14.9516 8.03444 14.9627 8.0499V8.23184C14.9762 8.26776 15.0017 8.29792 15.0348 8.31726C15.068 8.33659 15.1068 8.3439 15.1447 8.33797L15.1295 8.27732ZM15.4479 9.21731C15.4287 9.21516 15.4093 9.21711 15.391 9.223C15.3727 9.22889 15.3558 9.2386 15.3414 9.25149C15.3271 9.26438 15.3157 9.28016 15.3079 9.29778C15.3001 9.31541 15.2962 9.33449 15.2963 9.35376V9.53569C15.2963 9.55982 15.3059 9.58295 15.3229 9.60001C15.34 9.61707 15.3631 9.62666 15.3872 9.62666H17.3279C17.3398 9.62666 17.3516 9.6243 17.3627 9.61973C17.3737 9.61516 17.3837 9.60846 17.3922 9.60001C17.4006 9.59156 17.4073 9.58154 17.4119 9.5705C17.4165 9.55947 17.4188 9.54764 17.4188 9.53569V9.3386C17.4152 9.31718 17.4041 9.29777 17.3874 9.28387C17.3707 9.26997 17.3496 9.26249 17.3279 9.26279L15.4479 9.21731ZM3.40998 1C2.63677 1 2 1.46999 2 2.04611V20.5123C2 21.0884 2.63677 21.5584 3.40998 21.5584H20.4662C21.2394 21.5584 21.8762 21.0884 21.8762 20.5123V2.04611C21.8762 1.46999 21.2394 1 20.4662 1H3.40998Z" fill="#4F4F4F"/>
</g>
<defs>
<filter id="filter0_dii" x="0" y="-1" width="28" height="29" filterUnits="userSpaceOnUse" color-interpolation-filters="sRGB">
<feFlood flood-opacity="0" result="BackgroundImageFix"/>
<feColorMatrix in="SourceAlpha" type="matrix" values="0 0 0 0 0 0 0 0 0 0 0 0 0 0 0 0 0 0 127 0"/>
<feOffset dy="1"/>
<feGaussianBlur stdDeviation="1"/>
<feColorMatrix type="matrix" values="0 0 0 0 0 0 0 0 0 0 0 0 0 0 0 0 0 0 0.45 0"/>
<feBlend mode="normal" in2="BackgroundImageFix" result="effect1_dropShadow"/>
<feBlend mode="normal" in="SourceGraphic" in2="effect1_dropShadow" result="shape"/>
<feColorMatrix in="SourceAlpha" type="matrix" values="0 0 0 0 0 0 0 0 0 0 0 0 0 0 0 0 0 0 127 0" result="hardAlpha"/>
<feOffset dx="-1" dy="-2"/>
<feGaussianBlur stdDeviation="1"/>
<feComposite in2="hardAlpha" operator="arithmetic" k2="-1" k3="1"/>
<feColorMatrix type="matrix" values="0 0 0 0 0 0 0 0 0 0 0 0 0 0 0 0 0 0 0.3 0"/>
<feBlend mode="normal" in2="shape" result="effect2_innerShadow"/>
<feColorMatrix in="SourceAlpha" type="matrix" values="0 0 0 0 0 0 0 0 0 0 0 0 0 0 0 0 0 0 127 0" result="hardAlpha"/>
<feOffset dy="1"/>
<feGaussianBlur stdDeviation="1"/>
<feComposite in2="hardAlpha" operator="arithmetic" k2="-1" k3="1"/>
<feColorMatrix type="matrix" values="0 0 0 0 1 0 0 0 0 1 0 0 0 0 1 0 0 0 0.5 0"/>
<feBlend mode="normal" in2="effect2_innerShadow" result="effect3_innerShadow"/>
</filter>
</defs>
</svg>
