<svg width="26" height="25" viewBox="0 0 26 25" fill="none" xmlns="http://www.w3.org/2000/svg">
<path d="M25.0745 22.771L18.9116 16.5827C20.4962 14.7641 21.3644 12.4759 21.3644 10.0937C21.3644 4.52814 16.6742 0 10.9095 0C5.14474 0 0.45459 4.52814 0.45459 10.0937C0.45459 15.6593 5.14474 20.1875 10.9095 20.1875C13.0736 20.1875 15.136 19.5573 16.8992 18.361L23.109 24.5963C23.3685 24.8565 23.7176 25 24.0917 25C24.4458 25 24.7817 24.8697 25.0368 24.6327C25.5786 24.1293 25.5959 23.2946 25.0745 22.771ZM10.9095 2.63315C15.1705 2.63315 18.637 5.97988 18.637 10.0937C18.637 14.2076 15.1705 17.5543 10.9095 17.5543C6.64843 17.5543 3.18195 14.2076 3.18195 10.0937C3.18195 5.97988 6.64843 2.63315 10.9095 2.63315Z" fill="white"/>
</svg>
