<svg width="28" height="30" viewBox="0 0 28 30" fill="none" xmlns="http://www.w3.org/2000/svg">
<g filter="url(#filter0_dii)">
<path fill-rule="evenodd" clip-rule="evenodd" d="M22.6472 5.44912H24.5782C25.3634 5.44912 26 5.91596 26 6.51013V24.9717C26 25.5446 25.3634 26.0327 24.5782 26.0327H7.60212C6.82758 26.0327 6.19098 25.5552 6.19098 24.9717V23.3802H21.2891C22.0637 23.3802 22.7003 22.9133 22.7003 22.3191V5.44912H22.6472ZM11.1883 16.3032V17.1733H19.3581V16.3032H11.1883ZM11.1883 11.9425V12.8231H19.3581V11.9425H11.1883ZM11.1883 7.19978V8.06981H19.3581V7.19978H11.1883ZM4.64191 7.847L5.06631 8.62153C5.12515 8.69968 5.20656 8.75786 5.29955 8.78823C5.39253 8.81859 5.4926 8.81966 5.58621 8.79129H5.66048L9.0557 7.01941C9.09501 7.0062 9.13029 6.98319 9.15824 6.95256C9.18618 6.92193 9.20586 6.88468 9.21542 6.84434C9.22497 6.80399 9.22409 6.76188 9.21285 6.72196C9.20162 6.68205 9.1804 6.64566 9.1512 6.61623C9.07551 6.53892 8.97759 6.48715 8.87109 6.46813C8.76458 6.44911 8.65479 6.46379 8.55703 6.51013L5.56499 8.06981L5.37401 7.62419C5.31656 7.54757 5.23646 7.49096 5.14506 7.4624C5.05365 7.43384 4.95557 7.43476 4.86472 7.46503C4.66313 7.5287 4.56764 7.69846 4.65252 7.847H4.64191ZM4.64191 12.6003L5.06631 13.3748C5.12442 13.4537 5.20634 13.5117 5.29996 13.5403C5.39358 13.569 5.49394 13.5668 5.58621 13.534H5.66048L9.0557 11.7091C9.22547 11.6136 9.27852 11.4332 9.1512 11.3059C9.07855 11.2374 8.98625 11.1933 8.88728 11.18C8.7883 11.1667 8.68765 11.1847 8.59947 11.2316L5.60743 12.7701L5.37401 12.3775C5.31766 12.2996 5.23761 12.242 5.14582 12.2133C5.05403 12.1846 4.95542 12.1864 4.86472 12.2183C4.66313 12.282 4.56764 12.4518 4.65252 12.6003H4.64191ZM4.64191 16.9504L5.06631 17.725C5.12442 17.8038 5.20634 17.8618 5.29996 17.8905C5.39358 17.9191 5.49394 17.9169 5.58621 17.8841H5.66048L9.0557 16.1229C9.22547 16.0274 9.27852 15.847 9.1512 15.7197C9.07855 15.6512 8.98625 15.6071 8.88728 15.5938C8.7883 15.5805 8.68765 15.5985 8.59947 15.6454L5.60743 17.2051L5.37401 16.7276C5.31766 16.6497 5.23761 16.5921 5.14582 16.5634C5.05403 16.5347 4.95542 16.5365 4.86472 16.5685C4.66313 16.6321 4.56764 16.8019 4.65252 16.9504H4.64191ZM3.41114 2.00084C2.63661 2.00084 2 2.46769 2 3.06185V21.5022C2 22.0857 2.63661 22.5632 3.41114 22.5632H20.3873C21.1618 22.5632 21.809 22.0963 21.809 21.5022V3.05124C21.809 2.46769 21.1618 1.99023 20.3873 1.99023L3.41114 2.00084Z" fill="#4F4F4F"/>
</g>
<defs>
<filter id="filter0_dii" x="0" y="-0.00976562" width="28" height="29.0424" filterUnits="userSpaceOnUse" color-interpolation-filters="sRGB">
<feFlood flood-opacity="0" result="BackgroundImageFix"/>
<feColorMatrix in="SourceAlpha" type="matrix" values="0 0 0 0 0 0 0 0 0 0 0 0 0 0 0 0 0 0 127 0"/>
<feOffset dy="1"/>
<feGaussianBlur stdDeviation="1"/>
<feColorMatrix type="matrix" values="0 0 0 0 0 0 0 0 0 0 0 0 0 0 0 0 0 0 0.45 0"/>
<feBlend mode="normal" in2="BackgroundImageFix" result="effect1_dropShadow"/>
<feBlend mode="normal" in="SourceGraphic" in2="effect1_dropShadow" result="shape"/>
<feColorMatrix in="SourceAlpha" type="matrix" values="0 0 0 0 0 0 0 0 0 0 0 0 0 0 0 0 0 0 127 0" result="hardAlpha"/>
<feOffset dx="-1" dy="-2"/>
<feGaussianBlur stdDeviation="1"/>
<feComposite in2="hardAlpha" operator="arithmetic" k2="-1" k3="1"/>
<feColorMatrix type="matrix" values="0 0 0 0 0 0 0 0 0 0 0 0 0 0 0 0 0 0 0.3 0"/>
<feBlend mode="normal" in2="shape" result="effect2_innerShadow"/>
<feColorMatrix in="SourceAlpha" type="matrix" values="0 0 0 0 0 0 0 0 0 0 0 0 0 0 0 0 0 0 127 0" result="hardAlpha"/>
<feOffset dy="1"/>
<feGaussianBlur stdDeviation="1"/>
<feComposite in2="hardAlpha" operator="arithmetic" k2="-1" k3="1"/>
<feColorMatrix type="matrix" values="0 0 0 0 1 0 0 0 0 1 0 0 0 0 1 0 0 0 0.5 0"/>
<feBlend mode="normal" in2="effect2_innerShadow" result="effect3_innerShadow"/>
</filter>
</defs>
</svg>
