<svg width="28" height="29" viewBox="0 0 28 29" fill="none" xmlns="http://www.w3.org/2000/svg">
<g filter="url(#filter0_dii)">
<path fill-rule="evenodd" clip-rule="evenodd" d="M9.02775 11.0109V8.69399C9.17002 8.5901 9.28507 8.45335 9.36309 8.29541C9.44111 8.13747 9.47979 7.963 9.47584 7.78688V5.37158C9.49055 5.09793 9.45096 4.82407 9.35932 4.5658C9.26769 4.30752 9.12584 4.06994 8.94195 3.86674C8.75807 3.66355 8.53577 3.49877 8.28789 3.3819C8.04002 3.26502 7.77146 3.19838 7.4977 3.18579H7.02776C6.75446 3.19834 6.48637 3.26506 6.23907 3.38206C5.99177 3.49907 5.77018 3.66404 5.58716 3.86739C5.40414 4.07075 5.26334 4.30844 5.17294 4.56665C5.08254 4.82487 5.04433 5.09848 5.06054 5.37158V7.81967C5.05534 7.99484 5.09234 8.1687 5.16843 8.32657C5.24451 8.48444 5.35744 8.6217 5.4977 8.72678V11.0437C5.50463 11.0592 5.50822 11.0759 5.50822 11.0929C5.50822 11.1098 5.50463 11.1266 5.4977 11.1421C4.38275 11.7548 3.33827 12.4877 2.38295 13.3279C2.25823 13.4431 2.15957 13.5836 2.0936 13.7401C2.02763 13.8965 1.99586 14.0652 2.00043 14.235V15.8852H7.03868V13.918C7.03574 13.5784 7.10316 13.2419 7.23671 12.9297C7.37026 12.6174 7.56703 12.3362 7.81464 12.1038C8.22013 11.7159 8.64703 11.3511 9.09333 11.0109C9.09333 11.0109 9.09333 11.0109 9.09333 11.0109H9.02775ZM25.5523 13.2842C24.597 12.444 23.5525 11.711 22.4376 11.0984C22.429 11.0834 22.4244 11.0664 22.4244 11.0492C22.4244 11.0319 22.429 11.015 22.4376 11V8.69399C22.5799 8.5901 22.6949 8.45335 22.7729 8.29541C22.8509 8.13747 22.8896 7.963 22.8857 7.78688V5.37158C22.9004 5.09793 22.8608 4.82407 22.7692 4.5658C22.6775 4.30752 22.5357 4.06994 22.3518 3.86674C22.1679 3.66355 21.9456 3.49877 21.6977 3.3819C21.4499 3.26502 21.1813 3.19838 20.9075 3.18579H20.4376C20.1643 3.19834 19.8962 3.26506 19.6489 3.38206C19.4016 3.49907 19.18 3.66404 18.997 3.86739C18.814 4.07075 18.6732 4.30844 18.5828 4.56665C18.4924 4.82487 18.4542 5.09848 18.4704 5.37158V7.81967C18.4652 7.99484 18.5022 8.1687 18.5783 8.32657C18.6543 8.48444 18.7673 8.6217 18.9075 8.72678V11.0437C19.3538 11.3838 19.7807 11.7487 20.1862 12.1366C20.4349 12.3682 20.6324 12.6492 20.766 12.9617C20.8996 13.2741 20.9665 13.611 20.9622 13.9508V15.8962H25.9349V14.2131C25.9373 14.0427 25.9035 13.8736 25.8357 13.7172C25.7679 13.5609 25.6676 13.4207 25.5414 13.306L25.5523 13.2842ZM20.1972 20.9344V25.0328H7.72721V20.9344V13.9508C7.71985 13.7473 7.75602 13.5445 7.83329 13.356C7.91056 13.1675 8.02716 12.9977 8.1753 12.8579C9.29834 11.8677 10.526 11.0028 11.8365 10.2787C11.8595 10.2682 11.8789 10.2512 11.8925 10.2299C11.9061 10.2085 11.9132 10.1837 11.913 10.1585V7.42623C11.742 7.30168 11.6045 7.13664 11.513 6.9459C11.4214 6.75516 11.3786 6.54468 11.3884 6.33333V3.54644C11.3587 2.90171 11.586 2.27152 12.0203 1.79413C12.4547 1.31675 13.0607 1.03115 13.7054 1H14.2518C14.8965 1.03115 15.5025 1.31675 15.9368 1.79413C16.3712 2.27152 16.5984 2.90171 16.5687 3.54644V6.37705C16.5779 6.58717 16.5359 6.79638 16.4464 6.98672C16.357 7.17707 16.2227 7.34289 16.0551 7.46994V10.1913C16.0525 10.2156 16.0574 10.2401 16.0691 10.2616C16.0808 10.2831 16.0988 10.3005 16.1207 10.3115C17.4358 11.0325 18.6642 11.9015 19.7819 12.9016C19.9349 13.0381 20.0556 13.2071 20.135 13.3962C20.2144 13.5852 20.2506 13.7897 20.2409 13.9945L20.1972 20.9344Z" fill="#4F4F4F"/>
</g>
<defs>
<filter id="filter0_dii" x="0" y="-1" width="27.935" height="29.0328" filterUnits="userSpaceOnUse" color-interpolation-filters="sRGB">
<feFlood flood-opacity="0" result="BackgroundImageFix"/>
<feColorMatrix in="SourceAlpha" type="matrix" values="0 0 0 0 0 0 0 0 0 0 0 0 0 0 0 0 0 0 127 0"/>
<feOffset dy="1"/>
<feGaussianBlur stdDeviation="1"/>
<feColorMatrix type="matrix" values="0 0 0 0 0 0 0 0 0 0 0 0 0 0 0 0 0 0 0.45 0"/>
<feBlend mode="normal" in2="BackgroundImageFix" result="effect1_dropShadow"/>
<feBlend mode="normal" in="SourceGraphic" in2="effect1_dropShadow" result="shape"/>
<feColorMatrix in="SourceAlpha" type="matrix" values="0 0 0 0 0 0 0 0 0 0 0 0 0 0 0 0 0 0 127 0" result="hardAlpha"/>
<feOffset dx="-1" dy="-2"/>
<feGaussianBlur stdDeviation="1"/>
<feComposite in2="hardAlpha" operator="arithmetic" k2="-1" k3="1"/>
<feColorMatrix type="matrix" values="0 0 0 0 0 0 0 0 0 0 0 0 0 0 0 0 0 0 0.3 0"/>
<feBlend mode="normal" in2="shape" result="effect2_innerShadow"/>
<feColorMatrix in="SourceAlpha" type="matrix" values="0 0 0 0 0 0 0 0 0 0 0 0 0 0 0 0 0 0 127 0" result="hardAlpha"/>
<feOffset dy="1"/>
<feGaussianBlur stdDeviation="1"/>
<feComposite in2="hardAlpha" operator="arithmetic" k2="-1" k3="1"/>
<feColorMatrix type="matrix" values="0 0 0 0 1 0 0 0 0 1 0 0 0 0 1 0 0 0 0.5 0"/>
<feBlend mode="normal" in2="effect2_innerShadow" result="effect3_innerShadow"/>
</filter>
</defs>
</svg>
