<svg width="28" height="29" viewBox="0 0 28 29" fill="none" xmlns="http://www.w3.org/2000/svg">
<g filter="url(#filter0_dii)">
<path fill-rule="evenodd" clip-rule="evenodd" d="M15.6793 24.9588C18.109 24.7913 20.4067 23.7831 22.1835 22.1047C23.9603 20.4264 25.1072 18.181 25.43 15.7485C25.6523 13.0242 24.8075 10.3203 23.0765 8.21563C21.3455 6.11094 18.8657 4.7726 16.1679 4.48699V2.96905H17.3893C17.5641 2.97471 17.7342 2.91144 17.8634 2.79269C17.9927 2.67394 18.0709 2.50909 18.0814 2.33316V1.71777C18.0787 1.62886 18.0588 1.54134 18.0225 1.46023C17.9863 1.37911 17.9346 1.30599 17.8703 1.24502C17.8061 1.18406 17.7305 1.13646 17.6479 1.10494C17.5654 1.07343 17.4775 1.05862 17.3893 1.06136H12.2188C12.1306 1.05862 12.0427 1.07343 11.9601 1.10494C11.8776 1.13646 11.802 1.18406 11.7377 1.24502C11.6735 1.30599 11.6217 1.37911 11.5855 1.46023C11.5493 1.54134 11.5293 1.62886 11.5267 1.71777V2.39469C11.5372 2.57062 11.6154 2.73548 11.7446 2.85422C11.8739 2.97297 12.044 3.03624 12.2188 3.03058H13.318V4.52803C11.6432 4.71735 10.0342 5.29292 8.61574 6.21008C8.46185 6.30427 8.32975 6.43056 8.2283 6.58045C8.12685 6.73035 8.0584 6.90037 8.02755 7.07912C7.9967 7.25788 8.00417 7.44121 8.04944 7.61681C8.09471 7.79242 8.17675 7.95624 8.29004 8.09725C8.52778 8.36096 8.85104 8.53061 9.20175 8.57572C9.55247 8.62084 9.90766 8.53848 10.2035 8.34341C11.5406 7.50401 13.0862 7.06308 14.6615 7.07161C15.8043 7.03463 16.9412 7.25138 17.9916 7.70652C19.042 8.16166 19.9802 8.84402 20.7397 9.70528C21.4992 10.5665 22.0614 11.5856 22.3865 12.6902C22.7116 13.7948 22.7916 14.958 22.6208 16.0973C22.2617 17.6982 21.419 19.1476 20.2087 20.246C18.9984 21.3444 17.48 22.0377 15.8626 22.2306C13.7877 22.5445 11.6726 22.0393 9.95841 20.8202C8.24419 19.601 7.06315 17.7622 6.66154 15.687H7.59792C7.74089 15.6927 7.88272 15.6593 8.00841 15.5905C8.13411 15.5216 8.239 15.4198 8.312 15.2958C8.38499 15.1718 8.42338 15.0302 8.4231 14.886C8.42281 14.7419 8.38387 14.6004 8.31039 14.4767L5.98978 10.6408C5.91021 10.5181 5.80154 10.4173 5.67359 10.3475C5.54564 10.2777 5.40244 10.2412 5.25695 10.2412C5.11147 10.2412 4.96827 10.2777 4.84032 10.3475C4.71237 10.4173 4.60369 10.5181 4.52413 10.6408L2.14245 14.5588C2.06779 14.684 2.02859 14.8275 2.02909 14.9735C2.02959 15.1196 2.06976 15.2628 2.14527 15.3875C2.22078 15.5122 2.32874 15.6137 2.45743 15.6809C2.58612 15.7482 2.73062 15.7787 2.87528 15.769H3.95416C4.34458 18.5457 5.79448 21.0594 7.99554 22.7756C10.1966 24.4917 12.9752 25.275 15.7404 24.9588H15.6793ZM23.6997 4.01521L25.7353 5.84085C25.8003 5.8986 25.8524 5.96962 25.888 6.0492C25.9236 6.12877 25.9421 6.21507 25.9421 6.30238C25.9421 6.38969 25.9236 6.47599 25.888 6.55557C25.8524 6.63514 25.8003 6.70617 25.7353 6.76392L25.1857 7.33827C25.0535 7.46376 24.8788 7.53365 24.6972 7.53365C24.5155 7.53365 24.3408 7.46376 24.2086 7.33827L22.173 5.51263C22.1075 5.45302 22.0552 5.38023 22.0194 5.29896C21.9835 5.2177 21.965 5.12977 21.965 5.04085C21.965 4.95193 21.9835 4.864 22.0194 4.78273C22.0552 4.70147 22.1075 4.62866 22.173 4.56905L22.7226 4.01521C22.8514 3.89108 23.0228 3.82179 23.201 3.82179C23.3792 3.82179 23.5505 3.89108 23.6793 4.01521H23.6997ZM14.6208 14.7434V8.34341C15.4795 8.30467 16.3371 8.44139 17.1419 8.74537C17.9468 9.04935 18.6823 9.51429 19.3042 10.1122C19.9261 10.7101 20.4215 11.4287 20.7606 12.2246C21.0996 13.0205 21.2754 13.8773 21.2773 14.7434H14.6208Z" fill="#4F4F4F"/>
</g>
<defs>
<filter id="filter0_dii" x="0.0290833" y="-0.938965" width="27.913" height="28.9665" filterUnits="userSpaceOnUse" color-interpolation-filters="sRGB">
<feFlood flood-opacity="0" result="BackgroundImageFix"/>
<feColorMatrix in="SourceAlpha" type="matrix" values="0 0 0 0 0 0 0 0 0 0 0 0 0 0 0 0 0 0 127 0"/>
<feOffset dy="1"/>
<feGaussianBlur stdDeviation="1"/>
<feColorMatrix type="matrix" values="0 0 0 0 0 0 0 0 0 0 0 0 0 0 0 0 0 0 0.45 0"/>
<feBlend mode="normal" in2="BackgroundImageFix" result="effect1_dropShadow"/>
<feBlend mode="normal" in="SourceGraphic" in2="effect1_dropShadow" result="shape"/>
<feColorMatrix in="SourceAlpha" type="matrix" values="0 0 0 0 0 0 0 0 0 0 0 0 0 0 0 0 0 0 127 0" result="hardAlpha"/>
<feOffset dx="-1" dy="-2"/>
<feGaussianBlur stdDeviation="1"/>
<feComposite in2="hardAlpha" operator="arithmetic" k2="-1" k3="1"/>
<feColorMatrix type="matrix" values="0 0 0 0 0 0 0 0 0 0 0 0 0 0 0 0 0 0 0.3 0"/>
<feBlend mode="normal" in2="shape" result="effect2_innerShadow"/>
<feColorMatrix in="SourceAlpha" type="matrix" values="0 0 0 0 0 0 0 0 0 0 0 0 0 0 0 0 0 0 127 0" result="hardAlpha"/>
<feOffset dy="1"/>
<feGaussianBlur stdDeviation="1"/>
<feComposite in2="hardAlpha" operator="arithmetic" k2="-1" k3="1"/>
<feColorMatrix type="matrix" values="0 0 0 0 1 0 0 0 0 1 0 0 0 0 1 0 0 0 0.5 0"/>
<feBlend mode="normal" in2="effect2_innerShadow" result="effect3_innerShadow"/>
</filter>
</defs>
</svg>
