<svg width="122" height="122" viewBox="0 0 122 122" fill="none" xmlns="http://www.w3.org/2000/svg">
<g filter="url(#filter0_dd)">
<circle cx="62" cy="62" r="49" fill="#1B1B1B"/>
</g>
<path d="M79.8147 42.3216H68.762L66.5302 38.5721C66.3118 38.2056 65.9168 37.981 65.4902 37.981H58.4707C58.044 37.981 57.6489 38.2056 57.4307 38.5721L55.1988 42.3216H51.572V41.4952C51.572 40.8268 51.0301 40.285 50.3617 40.285H45.8837C45.2152 40.285 44.6735 40.8268 44.6735 41.4952V42.3216H44.1463C42.4654 42.3216 41.103 43.6841 41.103 45.3647V67.3988C41.103 69.0796 42.4654 70.4421 44.1462 70.4421H79.8147C81.4954 70.4421 82.858 69.0796 82.858 67.3988V45.3647C82.8581 43.6841 81.4954 42.3216 79.8147 42.3216ZM61.9804 65.0441C57.1963 65.0441 53.3181 61.1659 53.3181 56.3817C53.3181 51.5977 57.1963 47.7193 61.9804 47.7193C66.7645 47.7193 70.6428 51.5977 70.6428 56.3817C70.6428 61.1659 66.7645 65.0441 61.9804 65.0441ZM77.916 48.5957H74.1237C73.4554 48.5957 72.9135 48.0538 72.9135 47.3853C72.9135 46.7168 73.4554 46.175 74.1237 46.175H77.916C78.5846 46.175 79.1263 46.7168 79.1263 47.3853C79.1263 48.0538 78.5845 48.5957 77.916 48.5957Z" fill="#FF0055"/>
<path d="M61.9803 62.4332C65.3224 62.4332 68.0318 59.7238 68.0318 56.3816C68.0318 53.0394 65.3224 50.3301 61.9803 50.3301C58.6381 50.3301 55.9287 53.0394 55.9287 56.3816C55.9287 59.7238 58.6381 62.4332 61.9803 62.4332Z" fill="#FF0055"/>
<path d="M43.7585 89.8532C43.7985 89.9492 43.8185 90.0292 43.8185 90.0932C43.8185 90.2452 43.7545 90.3732 43.6265 90.4772C43.5065 90.5812 43.3705 90.6332 43.2185 90.6332C43.1145 90.6332 43.0145 90.6052 42.9185 90.5492C42.8305 90.4852 42.7625 90.3972 42.7145 90.2852L41.9225 88.4852H37.5305L36.7385 90.2852C36.6905 90.3972 36.6185 90.4852 36.5225 90.5492C36.4265 90.6052 36.3265 90.6332 36.2225 90.6332C36.0625 90.6332 35.9185 90.5812 35.7905 90.4772C35.6705 90.3732 35.6105 90.2452 35.6105 90.0932C35.6105 90.0292 35.6305 89.9492 35.6705 89.8532L39.0545 82.4492C39.1105 82.3212 39.1985 82.2212 39.3185 82.1492C39.4465 82.0772 39.5785 82.0412 39.7145 82.0412C39.8505 82.0412 39.9785 82.0772 40.0985 82.1492C40.2265 82.2212 40.3185 82.3212 40.3745 82.4492L43.7585 89.8532ZM37.9745 87.5012H41.4905L39.7265 83.5292L37.9745 87.5012ZM49.751 82.0532C49.935 82.0532 50.083 82.1052 50.195 82.2092C50.307 82.3132 50.363 82.4532 50.363 82.6292V90.0452C50.363 90.2292 50.307 90.3732 50.195 90.4772C50.091 90.5812 49.947 90.6332 49.763 90.6332C49.579 90.6332 49.431 90.5812 49.319 90.4772C49.215 90.3732 49.163 90.2292 49.163 90.0452V89.5652C48.987 89.9172 48.731 90.1892 48.395 90.3812C48.059 90.5652 47.671 90.6572 47.231 90.6572C46.727 90.6572 46.275 90.5292 45.875 90.2732C45.483 90.0172 45.175 89.6572 44.951 89.1932C44.735 88.7292 44.627 88.1972 44.627 87.5972C44.627 86.9892 44.735 86.4572 44.951 86.0012C45.175 85.5452 45.483 85.1932 45.875 84.9452C46.267 84.6972 46.719 84.5732 47.231 84.5732C47.671 84.5732 48.055 84.6692 48.383 84.8612C48.719 85.0452 48.975 85.3092 49.151 85.6532V82.6052C49.151 82.4372 49.203 82.3052 49.307 82.2092C49.419 82.1052 49.567 82.0532 49.751 82.0532ZM47.519 89.6972C48.039 89.6972 48.443 89.5172 48.731 89.1572C49.019 88.7972 49.163 88.2852 49.163 87.6212C49.163 86.9572 49.019 86.4452 48.731 86.0852C48.451 85.7252 48.047 85.5452 47.519 85.5452C46.991 85.5452 46.579 85.7252 46.283 86.0852C45.995 86.4372 45.851 86.9412 45.851 87.5972C45.851 88.2532 45.999 88.7692 46.295 89.1452C46.591 89.5132 46.999 89.6972 47.519 89.6972ZM56.8409 82.0532C57.0249 82.0532 57.1729 82.1052 57.2849 82.2092C57.3969 82.3132 57.4529 82.4532 57.4529 82.6292V90.0452C57.4529 90.2292 57.3969 90.3732 57.2849 90.4772C57.1809 90.5812 57.0369 90.6332 56.8529 90.6332C56.6689 90.6332 56.5209 90.5812 56.4089 90.4772C56.3049 90.3732 56.2529 90.2292 56.2529 90.0452V89.5652C56.0769 89.9172 55.8209 90.1892 55.4849 90.3812C55.1489 90.5652 54.7609 90.6572 54.3209 90.6572C53.8169 90.6572 53.3649 90.5292 52.9649 90.2732C52.5729 90.0172 52.2649 89.6572 52.0409 89.1932C51.8249 88.7292 51.7169 88.1972 51.7169 87.5972C51.7169 86.9892 51.8249 86.4572 52.0409 86.0012C52.2649 85.5452 52.5729 85.1932 52.9649 84.9452C53.3569 84.6972 53.8089 84.5732 54.3209 84.5732C54.7609 84.5732 55.1449 84.6692 55.4729 84.8612C55.8089 85.0452 56.0649 85.3092 56.2409 85.6532V82.6052C56.2409 82.4372 56.2929 82.3052 56.3969 82.2092C56.5089 82.1052 56.6569 82.0532 56.8409 82.0532ZM54.6089 89.6972C55.1289 89.6972 55.5329 89.5172 55.8209 89.1572C56.1089 88.7972 56.2529 88.2852 56.2529 87.6212C56.2529 86.9572 56.1089 86.4452 55.8209 86.0852C55.5409 85.7252 55.1369 85.5452 54.6089 85.5452C54.0809 85.5452 53.6689 85.7252 53.3729 86.0852C53.0849 86.4372 52.9409 86.9412 52.9409 87.5972C52.9409 88.2532 53.0889 88.7692 53.3849 89.1452C53.6809 89.5132 54.0889 89.6972 54.6089 89.6972ZM63.0508 90.5732C62.8668 90.5732 62.7188 90.5212 62.6068 90.4172C62.5028 90.3132 62.4508 90.1732 62.4508 89.9972V82.6772C62.4508 82.4932 62.5068 82.3452 62.6188 82.2332C62.7308 82.1132 62.8788 82.0532 63.0628 82.0532C63.2548 82.0532 63.4068 82.1092 63.5188 82.2212C63.6308 82.3332 63.6868 82.4852 63.6868 82.6772V89.5412H67.3348C67.5188 89.5412 67.6588 89.5852 67.7548 89.6732C67.8588 89.7612 67.9108 89.8892 67.9108 90.0572C67.9108 90.2252 67.8588 90.3532 67.7548 90.4412C67.6588 90.5292 67.5188 90.5732 67.3348 90.5732H63.0508ZM71.3899 90.6572C70.8139 90.6572 70.3059 90.5332 69.8659 90.2852C69.4339 90.0372 69.0979 89.6852 68.8579 89.2292C68.6259 88.7652 68.5099 88.2292 68.5099 87.6212C68.5099 87.0052 68.6259 86.4692 68.8579 86.0132C69.0979 85.5492 69.4339 85.1932 69.8659 84.9452C70.3059 84.6972 70.8139 84.5732 71.3899 84.5732C71.9659 84.5732 72.4699 84.6972 72.9019 84.9452C73.3419 85.1932 73.6779 85.5492 73.9099 86.0132C74.1499 86.4692 74.2699 87.0052 74.2699 87.6212C74.2699 88.2292 74.1499 88.7652 73.9099 89.2292C73.6779 89.6852 73.3419 90.0372 72.9019 90.2852C72.4699 90.5332 71.9659 90.6572 71.3899 90.6572ZM71.3899 89.6972C71.9259 89.6972 72.3339 89.5212 72.6139 89.1692C72.9019 88.8172 73.0459 88.3012 73.0459 87.6212C73.0459 86.9492 72.9019 86.4372 72.6139 86.0852C72.3259 85.7252 71.9179 85.5452 71.3899 85.5452C70.8619 85.5452 70.4539 85.7252 70.1659 86.0852C69.8779 86.4372 69.7339 86.9492 69.7339 87.6212C69.7339 88.3012 69.8739 88.8172 70.1539 89.1692C70.4419 89.5212 70.8539 89.6972 71.3899 89.6972ZM80.4673 84.5972C80.6513 84.5972 80.7953 84.6532 80.8993 84.7652C81.0113 84.8692 81.0673 85.0092 81.0673 85.1852V90.1052C81.0673 91.0012 80.8273 91.6772 80.3473 92.1332C79.8753 92.5892 79.1753 92.8172 78.2473 92.8172C77.3833 92.8172 76.6633 92.6532 76.0873 92.3252C75.7913 92.1572 75.6433 91.9572 75.6433 91.7252C75.6433 91.5892 75.6793 91.4772 75.7513 91.3892C75.8313 91.3012 75.9273 91.2572 76.0393 91.2572C76.1433 91.2572 76.3073 91.3172 76.5313 91.4372C76.8193 91.5732 77.0873 91.6772 77.3353 91.7492C77.5833 91.8292 77.8793 91.8692 78.2233 91.8692C79.3273 91.8692 79.8793 91.3132 79.8793 90.2012V89.2772C79.7113 89.6292 79.4553 89.9052 79.1113 90.1052C78.7673 90.2972 78.3673 90.3932 77.9113 90.3932C77.3993 90.3932 76.9433 90.2732 76.5433 90.0332C76.1433 89.7932 75.8313 89.4532 75.6073 89.0132C75.3913 88.5732 75.2833 88.0652 75.2833 87.4892C75.2833 86.9132 75.3953 86.4052 75.6193 85.9652C75.8433 85.5252 76.1513 85.1852 76.5433 84.9452C76.9433 84.6972 77.3993 84.5732 77.9113 84.5732C78.3593 84.5732 78.7513 84.6692 79.0873 84.8612C79.4313 85.0532 79.6913 85.3252 79.8673 85.6772V85.1732C79.8673 84.9972 79.9193 84.8572 80.0233 84.7532C80.1353 84.6492 80.2833 84.5972 80.4673 84.5972ZM78.1993 89.4332C78.7193 89.4332 79.1273 89.2612 79.4233 88.9172C79.7193 88.5732 79.8673 88.0972 79.8673 87.4892C79.8673 86.8892 79.7193 86.4172 79.4233 86.0732C79.1353 85.7212 78.7273 85.5452 78.1993 85.5452C77.6713 85.5452 77.2553 85.7172 76.9513 86.0612C76.6553 86.4052 76.5073 86.8812 76.5073 87.4892C76.5073 88.0972 76.6593 88.5732 76.9633 88.9172C77.2673 89.2612 77.6793 89.4332 78.1993 89.4332ZM85.3 90.6572C84.724 90.6572 84.216 90.5332 83.776 90.2852C83.344 90.0372 83.008 89.6852 82.768 89.2292C82.536 88.7652 82.42 88.2292 82.42 87.6212C82.42 87.0052 82.536 86.4692 82.768 86.0132C83.008 85.5492 83.344 85.1932 83.776 84.9452C84.216 84.6972 84.724 84.5732 85.3 84.5732C85.876 84.5732 86.38 84.6972 86.812 84.9452C87.252 85.1932 87.588 85.5492 87.82 86.0132C88.06 86.4692 88.18 87.0052 88.18 87.6212C88.18 88.2292 88.06 88.7652 87.82 89.2292C87.588 89.6852 87.252 90.0372 86.812 90.2852C86.38 90.5332 85.876 90.6572 85.3 90.6572ZM85.3 89.6972C85.836 89.6972 86.244 89.5212 86.524 89.1692C86.812 88.8172 86.956 88.3012 86.956 87.6212C86.956 86.9492 86.812 86.4372 86.524 86.0852C86.236 85.7252 85.828 85.5452 85.3 85.5452C84.772 85.5452 84.364 85.7252 84.076 86.0852C83.788 86.4372 83.644 86.9492 83.644 87.6212C83.644 88.3012 83.784 88.8172 84.064 89.1692C84.352 89.5212 84.764 89.6972 85.3 89.6972Z" fill="#FF0055"/>
<defs>
<filter id="filter0_dd" x="0" y="0" width="122" height="122" filterUnits="userSpaceOnUse" color-interpolation-filters="sRGB">
<feFlood flood-opacity="0" result="BackgroundImageFix"/>
<feColorMatrix in="SourceAlpha" type="matrix" values="0 0 0 0 0 0 0 0 0 0 0 0 0 0 0 0 0 0 127 0"/>
<feOffset dx="-1" dy="-1"/>
<feGaussianBlur stdDeviation="6"/>
<feColorMatrix type="matrix" values="0 0 0 0 0 0 0 0 0 0 0 0 0 0 0 0 0 0 0.7 0"/>
<feBlend mode="normal" in2="BackgroundImageFix" result="effect1_dropShadow"/>
<feColorMatrix in="SourceAlpha" type="matrix" values="0 0 0 0 0 0 0 0 0 0 0 0 0 0 0 0 0 0 127 0"/>
<feOffset dx="-2" dy="-2"/>
<feGaussianBlur stdDeviation="4"/>
<feColorMatrix type="matrix" values="0 0 0 0 0.419608 0 0 0 0 0.388235 0 0 0 0 0.388235 0 0 0 0.25 0"/>
<feBlend mode="normal" in2="effect1_dropShadow" result="effect2_dropShadow"/>
<feBlend mode="normal" in="SourceGraphic" in2="effect2_dropShadow" result="shape"/>
</filter>
</defs>
</svg>
