<svg width="317" height="267" viewBox="0 0 317 267" fill="none" xmlns="http://www.w3.org/2000/svg">
<path fill-rule="evenodd" clip-rule="evenodd" d="M236.568 61.7856C236.568 61.7856 228.881 87.1617 221.193 93.7815C214.604 101.505 204.72 107.021 191.541 94.8848C190.443 93.7815 189.344 92.6782 188.246 91.5749C187.148 91.5749 186.05 89.3683 184.952 89.3683C173.969 79.4385 160.79 72.8187 142.121 78.3352C119.058 84.9551 85.0126 88.265 85.0126 88.265C85.0126 88.265 67.441 91.5749 42.1817 52.9592C15.8242 14.3435 11.4313 4.41373 11.4313 4.41373C11.4313 4.41373 0.448975 -8.82594 0.448975 11.0336C0.448975 30.8931 1.5472 59.579 10.333 84.9551C19.1189 110.331 36.6905 136.81 36.6905 136.81L121.254 148.947C121.254 148.947 130.04 133.501 144.317 133.501C159.692 133.501 171.773 143.43 181.657 154.463C190.443 165.496 213.505 197.492 213.505 197.492C213.505 197.492 226.684 210.732 238.765 194.182C250.845 178.736 236.568 61.7856 236.568 61.7856Z" fill="#707070"/>
<path fill-rule="evenodd" clip-rule="evenodd" d="M231.079 39.719C234.374 -3.30994 291.482 -9.92978 307.955 25.376C309.054 26.4793 307.955 27.5826 306.857 28.6859C247.553 66.1983 294.777 172.116 311.25 212.938C338.706 284.653 239.865 293.479 204.722 185.355C204.722 185.355 217.901 194.182 224.49 184.252C232.178 172.116 229.981 59.5785 231.079 39.719ZM114.667 54.062C152.007 35.3058 169.578 66.1983 188.248 91.5744C188.248 91.5744 162.989 66.1983 143.221 94.8843C123.453 123.57 130.042 163.289 130.042 163.289C130.042 163.289 137.73 205.215 106.979 206.318C76.2289 208.525 25.7103 119.157 25.7103 119.157C83.9165 131.293 75.1307 75.0248 114.667 54.062Z" fill="url(#paint0_linear)"/>
<defs>
<linearGradient id="paint0_linear" x1="33.7341" y1="131.623" x2="309.668" y2="27.3827" gradientUnits="userSpaceOnUse">
<stop stop-color="#693AE5"/>
<stop offset="0.258824" stop-color="#00EC7E"/>
<stop offset="0.6" stop-color="#FEB800"/>
<stop offset="1" stop-color="#FF0055"/>
</linearGradient>
</defs>
</svg>
